<svg width="163" height="39" viewBox="0 0 163 39" fill="none" xmlns="http://www.w3.org/2000/svg">
<g clip-path="url(#clip0_1185_1328)">
<path fill-rule="evenodd" clip-rule="evenodd" d="M0.125 19.2227C0.125 18.8991 0.404822 18.6367 0.75 18.6367H31.25C31.5952 18.6367 31.875 18.8991 31.875 19.2227C31.875 19.5463 31.5952 19.8086 31.25 19.8086H0.75C0.404822 19.8086 0.125 19.5463 0.125 19.2227Z" fill="#2E6F40"/>
<path fill-rule="evenodd" clip-rule="evenodd" d="M0.125 22.9727C0.125 22.6491 0.404822 22.3867 0.75 22.3867H31.25C31.5952 22.3867 31.875 22.6491 31.875 22.9727C31.875 23.2963 31.5952 23.5586 31.25 23.5586H0.75C0.404822 23.5586 0.125 23.2963 0.125 22.9727Z" fill="#2E6F40"/>
<path fill-rule="evenodd" clip-rule="evenodd" d="M0.125 26.7227C0.125 26.3991 0.404822 26.1367 0.75 26.1367H31.25C31.5952 26.1367 31.875 26.3991 31.875 26.7227C31.875 27.0463 31.5952 27.3086 31.25 27.3086H0.75C0.404822 27.3086 0.125 27.0463 0.125 26.7227Z" fill="#2E6F40"/>
<path fill-rule="evenodd" clip-rule="evenodd" d="M0.125 30.4727C0.125 30.1491 0.404822 29.8867 0.75 29.8867H31.25C31.5952 29.8867 31.875 30.1491 31.875 30.4727C31.875 30.7963 31.5952 31.0586 31.25 31.0586H0.75C0.404822 31.0586 0.125 30.7963 0.125 30.4727Z" fill="#2E6F40"/>
<path fill-rule="evenodd" clip-rule="evenodd" d="M7.03125 7.21094L7.03125 18.6953H5.78125L5.78125 7.21094H7.03125Z" fill="#2E6F40"/>
<path fill-rule="evenodd" clip-rule="evenodd" d="M6.29686 1.22539L6.8104 1.69294C7.33053 2.16649 7.73207 2.58636 7.98689 3.0444C8.25482 3.52599 8.3391 4.00853 8.31183 4.5715L8.3105 4.59896L8.30643 4.62618C8.22956 5.14079 8.13302 5.59598 7.90473 6.05587C7.67631 6.516 7.33544 6.94288 6.82601 7.44077L6.38138 7.87533L5.93017 7.44677C5.44891 6.98969 5.11369 6.57561 4.897 6.10216C4.68131 5.63089 4.60391 5.14534 4.56387 4.58402L4.56152 4.55119L4.56312 4.51833C4.61207 3.50825 5.02803 2.8383 5.87197 1.7655L6.29686 1.22539ZM6.44905 3.02795C5.98856 3.67169 5.84267 4.0454 5.81354 4.53953C5.85053 5.03287 5.91547 5.35549 6.04572 5.64008C6.12019 5.8028 6.2226 5.96719 6.37321 6.15133C6.55783 5.93161 6.68145 5.74271 6.77144 5.56141C6.91763 5.26693 6.99381 4.95602 7.0643 4.49161C7.08007 4.10075 7.0195 3.83962 6.87859 3.58634C6.78529 3.41864 6.6494 3.24073 6.44905 3.02795Z" fill="#2E6F40"/>
<path fill-rule="evenodd" clip-rule="evenodd" d="M1.35446 5.74911L1.38146 6.41974C1.40881 7.09898 1.47295 7.65968 1.66552 8.1437C1.86798 8.65262 2.1941 9.03421 2.6586 9.39192L2.68126 9.40936L2.70556 9.42475C3.16492 9.71553 3.59034 9.95285 4.10765 10.1015C4.62523 10.2503 5.1917 10.2984 5.92724 10.2767L6.56923 10.2577L6.53144 9.65655C6.49114 9.0154 6.38721 8.50479 6.15691 8.03702C5.92766 7.57141 5.59456 7.19258 5.1764 6.78909L5.15195 6.7655L5.12483 6.74461C4.2914 6.10285 3.48201 5.94437 2.06691 5.81449L1.35446 5.74911ZM2.68149 7.06128C3.49991 7.17121 3.89376 7.31963 4.30494 7.62997C4.67125 7.98585 4.88354 8.24697 5.02198 8.52815C5.10113 8.6889 5.16292 8.87025 5.20811 9.0984C4.9104 9.08 4.67794 9.03972 4.47401 8.98111C4.14276 8.88591 3.84533 8.73095 3.43004 8.46931C3.10966 8.21876 2.94319 8.00183 2.8367 7.73417C2.7662 7.55697 2.71611 7.34325 2.68149 7.06128Z" fill="#2E6F40"/>
<path fill-rule="evenodd" clip-rule="evenodd" d="M10.7879 8.73573L10.8234 9.40602C10.8593 10.0849 10.8475 10.6487 10.7007 11.1466C10.5463 11.6702 10.2569 12.0769 9.82742 12.4712L9.80647 12.4905L9.78369 12.5078C9.35312 12.835 8.95137 13.1062 8.44986 13.2965C7.94807 13.487 7.38823 13.5813 6.65347 13.6197L6.01216 13.6532L5.99392 13.0513C5.97447 12.4093 6.03052 11.8921 6.21647 11.4073C6.40156 10.9248 6.69817 10.5202 7.07723 10.084L7.09939 10.0585L7.12447 10.0355C7.89506 9.3281 8.68664 9.10409 10.0843 8.85908L10.7879 8.73573ZM9.58795 10.1513C8.78287 10.3277 8.40431 10.5078 8.02355 10.8505C7.69171 11.235 7.50451 11.5124 7.39274 11.8039C7.32883 11.9705 7.28413 12.1562 7.26033 12.3872C7.55519 12.3445 7.78302 12.2854 7.98073 12.2103C8.30187 12.0884 8.58376 11.9098 8.97315 11.6152C9.26902 11.3394 9.41469 11.1097 9.49589 10.8344C9.54964 10.6521 9.57968 10.4351 9.58795 10.1513Z" fill="#2E6F40"/>
<path fill-rule="evenodd" clip-rule="evenodd" d="M0.280402 14.2538L0.596025 14.8562C0.915698 15.4663 1.21755 15.9541 1.60347 16.3228C2.00923 16.7105 2.4727 16.9348 3.05224 17.0844L3.08051 17.0917L3.10938 17.0965C3.65518 17.187 4.14679 17.2416 4.68387 17.1801C5.22124 17.1187 5.75963 16.9467 6.42214 16.6463L7.00038 16.3841L6.70506 15.8494C6.39008 15.2791 6.07361 14.8522 5.66027 14.5127C5.24884 14.1748 4.78019 13.9557 4.22312 13.7465L4.19055 13.7343L4.15671 13.7256C3.11691 13.4571 2.30873 13.6209 0.959625 14.0419L0.280402 14.2538ZM2.062 14.9465C2.85735 14.7349 3.28154 14.7203 3.79182 14.847C4.28086 15.0325 4.58808 15.1901 4.83654 15.3941C4.97859 15.5108 5.11372 15.6529 5.25399 15.8441C4.97403 15.9408 4.7442 15.9927 4.53247 16.0169C4.18856 16.0562 3.84961 16.0281 3.35671 15.9474C2.95532 15.8407 2.70913 15.706 2.49573 15.5021C2.35444 15.3671 2.21595 15.1909 2.062 14.9465Z" fill="#2E6F40"/>
<path fill-rule="evenodd" clip-rule="evenodd" d="M27.8438 7.21094L27.8438 18.6953H26.5938L26.5938 7.21094H27.8438Z" fill="#2E6F40"/>
<path fill-rule="evenodd" clip-rule="evenodd" d="M27.1096 1.22539L27.6231 1.69294C28.1433 2.16649 28.5448 2.58636 28.7996 3.0444C29.0676 3.52599 29.1518 4.00853 29.1246 4.5715L29.1232 4.59896L29.1192 4.62618C29.0423 5.14079 28.9458 5.59598 28.7175 6.05587C28.4891 6.516 28.1482 6.94288 27.6388 7.44077L27.1941 7.87533L26.7429 7.44677C26.2617 6.98969 25.9264 6.57561 25.7097 6.10216C25.4941 5.63089 25.4166 5.14534 25.3766 4.58402L25.3743 4.55119L25.3759 4.51833C25.4248 3.50825 25.8408 2.8383 26.6847 1.7655L27.1096 1.22539ZM27.2618 3.02795C26.8013 3.67169 26.6554 4.0454 26.6263 4.53953C26.6633 5.03287 26.7282 5.35549 26.8585 5.64008C26.9329 5.8028 27.0353 5.96719 27.186 6.15133C27.3706 5.93161 27.4942 5.74271 27.5842 5.56141C27.7304 5.26693 27.8066 4.95602 27.877 4.49161C27.8928 4.10075 27.8322 3.83962 27.6913 3.58634C27.598 3.41864 27.4621 3.24073 27.2618 3.02795Z" fill="#2E6F40"/>
<path fill-rule="evenodd" clip-rule="evenodd" d="M22.1672 5.74911L22.1942 6.41974C22.2215 7.09898 22.2857 7.65968 22.4783 8.1437C22.6807 8.65262 23.0068 9.03421 23.4713 9.39192L23.494 9.40936L23.5183 9.42475C23.9777 9.71553 24.4031 9.95285 24.9204 10.1015C25.438 10.2503 26.0044 10.2984 26.74 10.2767L27.382 10.2577L27.3442 9.65655C27.3039 9.0154 27.2 8.50479 26.9697 8.03702C26.7404 7.57141 26.4073 7.19258 25.9891 6.78909L25.9647 6.7655L25.9376 6.74461C25.1041 6.10285 24.2948 5.94437 22.8797 5.81449L22.1672 5.74911ZM23.4942 7.06128C24.3126 7.17121 24.7065 7.31963 25.1177 7.62997C25.484 7.98585 25.6963 8.24697 25.8347 8.52815C25.9139 8.6889 25.9757 8.87025 26.0209 9.0984C25.7231 9.08 25.4907 9.03972 25.2868 8.98111C24.9555 8.88591 24.6581 8.73095 24.2428 8.46931C23.9224 8.21876 23.7559 8.00183 23.6494 7.73417C23.5789 7.55697 23.5289 7.34325 23.4942 7.06128Z" fill="#2E6F40"/>
<path fill-rule="evenodd" clip-rule="evenodd" d="M31.6004 8.73573L31.6359 9.40602C31.6718 10.0849 31.66 10.6487 31.5132 11.1466C31.3588 11.6702 31.0694 12.0769 30.6399 12.4712L30.619 12.4905L30.5962 12.5078C30.1656 12.835 29.7639 13.1062 29.2624 13.2965C28.7606 13.487 28.2007 13.5813 27.466 13.6197L26.8247 13.6532L26.8064 13.0513C26.787 12.4093 26.843 11.8921 27.029 11.4073C27.2141 10.9248 27.5107 10.5202 27.8897 10.084L27.9119 10.0585L27.937 10.0355C28.7076 9.3281 29.4991 9.10409 30.8968 8.85908L31.6004 8.73573ZM30.4004 10.1513C29.5954 10.3277 29.2168 10.5078 28.836 10.8505C28.5042 11.235 28.317 11.5124 28.2052 11.8039C28.1413 11.9705 28.0966 12.1562 28.0728 12.3872C28.3677 12.3445 28.5955 12.2854 28.7932 12.2103C29.1144 12.0884 29.3963 11.9098 29.7856 11.6152C30.0815 11.3394 30.2272 11.1097 30.3084 10.8344C30.3621 10.6521 30.3922 10.4351 30.4004 10.1513Z" fill="#2E6F40"/>
<path fill-rule="evenodd" clip-rule="evenodd" d="M21.0929 14.2538L21.4085 14.8562C21.7282 15.4663 22.0301 15.9541 22.416 16.3228C22.8217 16.7105 23.2852 16.9348 23.8647 17.0844L23.893 17.0917L23.9219 17.0965C24.4677 17.187 24.9593 17.2416 25.4964 17.1801C26.0337 17.1187 26.5721 16.9467 27.2346 16.6463L27.8129 16.3841L27.5176 15.8494C27.2026 15.2791 26.8861 14.8522 26.4728 14.5127C26.0613 14.1748 25.5927 13.9557 25.0356 13.7465L25.003 13.7343L24.9692 13.7256C23.9294 13.4571 23.1212 13.6209 21.7721 14.0419L21.0929 14.2538ZM22.8745 14.9465C23.6698 14.7349 24.094 14.7203 24.6043 14.847C25.0934 15.0325 25.4006 15.1901 25.649 15.3941C25.7911 15.5108 25.9262 15.6529 26.0665 15.8441C25.7865 15.9408 25.5567 15.9927 25.345 16.0169C25.0011 16.0562 24.6621 16.0281 24.1692 15.9474C23.7678 15.8407 23.5216 15.706 23.3082 15.5021C23.1669 15.3671 23.0285 15.1909 22.8745 14.9465Z" fill="#2E6F40"/>
<path fill-rule="evenodd" clip-rule="evenodd" d="M16.6626 10.4922V18.6953H15.4126L15.4126 10.4922H16.6626Z" fill="#2E6F40"/>
<path fill-rule="evenodd" clip-rule="evenodd" d="M15.9219 4.38945L16.4354 4.85701C16.9555 5.33056 17.3571 5.75043 17.6119 6.20846C17.8798 6.69005 17.9641 7.17259 17.9368 7.73556L17.9355 7.76302L17.9314 7.79025C17.8546 8.30485 17.758 8.76004 17.5297 9.21993C17.3013 9.68006 16.9604 10.1069 16.451 10.6048L16.0064 11.0394L15.5552 10.6108C15.0739 10.1537 14.7387 9.73968 14.522 9.26622C14.3063 8.79495 14.2289 8.3094 14.1889 7.74808L14.1865 7.71525L14.1881 7.68239C14.2371 6.67232 14.653 6.00236 15.497 4.92956L15.9219 4.38945ZM16.074 6.19201C15.6136 6.83575 15.4677 7.20946 15.4385 7.70359C15.4755 8.19693 15.5405 8.51956 15.6707 8.80415C15.7452 8.96686 15.8476 9.13126 15.9982 9.3154C16.1828 9.09567 16.3064 8.90677 16.3964 8.72547C16.5426 8.43099 16.6188 8.12008 16.6893 7.65568C16.7051 7.26482 16.6445 7.00368 16.5036 6.7504C16.4103 6.58271 16.2744 6.4048 16.074 6.19201Z" fill="#2E6F40"/>
<path fill-rule="evenodd" clip-rule="evenodd" d="M10.7081 10.2611L10.7973 10.927C10.8877 11.6014 11.0037 12.1547 11.2406 12.6212C11.4896 13.1116 11.8499 13.4651 12.3459 13.7835L12.3701 13.799L12.3958 13.8124C12.8804 14.0645 13.3263 14.2662 13.8554 14.372C14.3849 14.4779 14.9537 14.4796 15.6844 14.3978L16.3222 14.3264L16.2286 13.7307C16.1289 13.0953 15.9779 12.5951 15.705 12.1479C15.4333 11.7028 15.0663 11.3527 14.6122 10.9849L14.5856 10.9634L14.5567 10.9448C13.6667 10.3735 12.8457 10.2818 11.4239 10.268L10.7081 10.2611ZM12.1521 11.4599C12.9776 11.5025 13.3837 11.6182 13.8222 11.8937C14.2202 12.2183 14.456 12.4611 14.62 12.7299C14.7138 12.8836 14.7922 13.0592 14.8584 13.2828C14.5602 13.2888 14.3248 13.2677 14.1162 13.2259C13.7774 13.1582 13.4667 13.0281 13.0287 12.8014C12.6862 12.578 12.5002 12.3755 12.3692 12.1175C12.2825 11.9468 12.2128 11.7379 12.1521 11.4599Z" fill="#2E6F40"/>
<path fill-rule="evenodd" clip-rule="evenodd" d="M21.5083 13.6803L21.3453 14.3338C21.1802 14.9956 21.0031 15.5346 20.7156 15.9753C20.4132 16.4386 20.0154 16.7548 19.4867 17.0229L19.4609 17.036L19.4339 17.0467C18.9238 17.25 18.4579 17.4068 17.9198 17.4602C17.3815 17.5137 16.8156 17.4596 16.098 17.3067L15.4717 17.1732L15.6311 16.5899C15.8012 15.9677 16.0071 15.4851 16.3284 15.0671C16.6482 14.651 17.0523 14.3388 17.5449 14.0175L17.5737 13.9987L17.6046 13.9831C18.5533 13.5022 19.3801 13.4914 20.7956 13.617L21.5083 13.6803ZM19.9385 14.731C19.1128 14.6925 18.696 14.7677 18.2292 14.9988C17.7972 15.2826 17.5356 15.501 17.3425 15.7522C17.2321 15.8959 17.1345 16.0628 17.0437 16.2787C17.3397 16.3139 17.5761 16.3159 17.7882 16.2949C18.1328 16.2607 18.4563 16.1618 18.9172 15.9792C19.2827 15.7906 19.4902 15.6074 19.6492 15.3637C19.7545 15.2024 19.8472 15.0016 19.9385 14.731Z" fill="#2E6F40"/>
</g>
<path d="M53.472 31.16C51.7867 31.16 50.2293 30.8827 48.8 30.328C47.3707 29.752 46.1227 28.952 45.056 27.928C44.0107 26.904 43.2 25.7093 42.624 24.344C42.048 22.9573 41.76 21.4427 41.76 19.8C41.76 18.1573 42.048 16.6533 42.624 15.288C43.2 13.9013 44.0213 12.696 45.088 11.672C46.1547 10.648 47.392 9.85867 48.8 9.304C50.2293 8.728 51.7973 8.44 53.504 8.44C55.1253 8.44 56.6293 8.696 58.016 9.208C59.4027 9.72 60.5867 10.488 61.568 11.512L60.544 12.6C59.5627 11.64 58.4853 10.9573 57.312 10.552C56.16 10.1467 54.9013 9.944 53.536 9.944C52.0853 9.944 50.7413 10.1893 49.504 10.68C48.2667 11.1707 47.1893 11.864 46.272 12.76C45.3547 13.656 44.64 14.7013 44.128 15.896C43.6373 17.0907 43.392 18.392 43.392 19.8C43.392 21.208 43.6373 22.5093 44.128 23.704C44.64 24.8987 45.3547 25.944 46.272 26.84C47.1893 27.736 48.2667 28.4293 49.504 28.92C50.7413 29.4107 52.0853 29.656 53.536 29.656C54.8587 29.656 56.1067 29.4533 57.28 29.048C58.4747 28.6427 59.5627 27.9707 60.544 27.032L61.472 28.28C60.4693 29.24 59.264 29.9653 57.856 30.456C56.4693 30.9253 55.008 31.16 53.472 31.16ZM59.904 28.12V19.896H61.472V28.28L59.904 28.12ZM68.142 31V14.296H69.678V18.872L69.518 18.36C69.9873 17.016 70.7767 15.9813 71.886 15.256C72.9953 14.5307 74.382 14.168 76.046 14.168V15.736C75.982 15.736 75.918 15.736 75.854 15.736C75.79 15.7147 75.726 15.704 75.662 15.704C73.806 15.704 72.3553 16.2907 71.31 17.464C70.2647 18.616 69.742 20.2267 69.742 22.296V31H68.142ZM87.0823 31.128C85.3969 31.128 83.9036 30.7653 82.6023 30.04C81.3223 29.3147 80.3089 28.312 79.5623 27.032C78.8369 25.752 78.4743 24.2907 78.4743 22.648C78.4743 20.984 78.8156 19.5227 79.4983 18.264C80.2023 16.984 81.1623 15.9813 82.3783 15.256C83.5943 14.5307 84.9596 14.168 86.4743 14.168C87.9889 14.168 89.3436 14.52 90.5383 15.224C91.7543 15.928 92.7036 16.92 93.3863 18.2C94.0903 19.4587 94.4423 20.92 94.4423 22.584C94.4423 22.648 94.4316 22.7227 94.4103 22.808C94.4103 22.872 94.4103 22.9467 94.4103 23.032H79.6583V21.784H93.5463L92.9062 22.392C92.9276 21.0907 92.6503 19.928 92.0743 18.904C91.5196 17.8587 90.7623 17.048 89.8023 16.472C88.8423 15.8747 87.7329 15.576 86.4743 15.576C85.2369 15.576 84.1276 15.8747 83.1463 16.472C82.1863 17.048 81.4289 17.8587 80.8743 18.904C80.3196 19.928 80.0423 21.1013 80.0423 22.424V22.712C80.0423 24.0773 80.3409 25.2933 80.9383 26.36C81.5569 27.4053 82.3996 28.2267 83.4663 28.824C84.5329 29.4 85.7489 29.688 87.1143 29.688C88.1809 29.688 89.1729 29.496 90.0903 29.112C91.0289 28.728 91.8183 28.1413 92.4583 27.352L93.3863 28.408C92.6609 29.304 91.7436 29.9867 90.6343 30.456C89.5463 30.904 88.3623 31.128 87.0823 31.128ZM105.824 31.128C104.267 31.128 102.859 30.776 101.6 30.072C100.363 29.3467 99.3813 28.344 98.656 27.064C97.9307 25.784 97.568 24.312 97.568 22.648C97.568 20.9627 97.9307 19.4907 98.656 18.232C99.3813 16.952 100.363 15.96 101.6 15.256C102.859 14.5307 104.267 14.168 105.824 14.168C107.296 14.168 108.619 14.5093 109.792 15.192C110.987 15.8747 111.925 16.8453 112.608 18.104C113.312 19.3627 113.664 20.8773 113.664 22.648C113.664 24.376 113.323 25.88 112.64 27.16C111.957 28.44 111.019 29.4213 109.824 30.104C108.651 30.7867 107.317 31.128 105.824 31.128ZM105.92 29.688C107.2 29.688 108.341 29.4 109.344 28.824C110.368 28.2267 111.168 27.3947 111.744 26.328C112.341 25.2613 112.64 24.0347 112.64 22.648C112.64 21.24 112.341 20.0133 111.744 18.968C111.168 17.9013 110.368 17.08 109.344 16.504C108.341 15.9067 107.2 15.608 105.92 15.608C104.64 15.608 103.488 15.9067 102.464 16.504C101.461 17.08 100.661 17.9013 100.064 18.968C99.488 20.0133 99.2 21.24 99.2 22.648C99.2 24.0347 99.488 25.2613 100.064 26.328C100.661 27.3947 101.461 28.2267 102.464 28.824C103.488 29.4 104.64 29.688 105.92 29.688ZM112.672 31V25.528L112.96 22.616L112.64 19.704V7.256H114.24V31H112.672ZM120.986 31V14.296H122.586V31H120.986ZM121.786 10.232C121.423 10.232 121.114 10.104 120.858 9.848C120.602 9.592 120.474 9.29333 120.474 8.952C120.474 8.58933 120.602 8.28 120.858 8.024C121.114 7.768 121.423 7.64 121.786 7.64C122.17 7.64 122.479 7.768 122.714 8.024C122.97 8.25867 123.098 8.55733 123.098 8.92C123.098 9.28267 122.97 9.592 122.714 9.848C122.479 10.104 122.17 10.232 121.786 10.232ZM135.954 31.128C134.332 31.128 132.882 30.7653 131.602 30.04C130.343 29.3147 129.34 28.312 128.594 27.032C127.868 25.752 127.506 24.2907 127.506 22.648C127.506 20.984 127.868 19.512 128.594 18.232C129.34 16.952 130.343 15.96 131.602 15.256C132.882 14.5307 134.332 14.168 135.954 14.168C137.298 14.168 138.514 14.424 139.602 14.936C140.711 15.448 141.607 16.216 142.29 17.24L141.106 18.104C140.508 17.2507 139.762 16.6213 138.866 16.216C137.97 15.8107 136.999 15.608 135.954 15.608C134.652 15.608 133.479 15.9067 132.434 16.504C131.41 17.08 130.599 17.9013 130.002 18.968C129.426 20.0133 129.138 21.24 129.138 22.648C129.138 24.056 129.426 25.2933 130.002 26.36C130.599 27.4053 131.41 28.2267 132.434 28.824C133.479 29.4 134.652 29.688 135.954 29.688C136.999 29.688 137.97 29.4853 138.866 29.08C139.762 28.6747 140.508 28.0453 141.106 27.192L142.29 28.056C141.607 29.08 140.711 29.848 139.602 30.36C138.514 30.872 137.298 31.128 135.954 31.128ZM153.582 31.128C151.897 31.128 150.404 30.7653 149.102 30.04C147.822 29.3147 146.809 28.312 146.062 27.032C145.337 25.752 144.974 24.2907 144.974 22.648C144.974 20.984 145.316 19.5227 145.998 18.264C146.702 16.984 147.662 15.9813 148.878 15.256C150.094 14.5307 151.46 14.168 152.974 14.168C154.489 14.168 155.844 14.52 157.038 15.224C158.254 15.928 159.204 16.92 159.886 18.2C160.59 19.4587 160.942 20.92 160.942 22.584C160.942 22.648 160.932 22.7227 160.91 22.808C160.91 22.872 160.91 22.9467 160.91 23.032H146.158V21.784H160.046L159.406 22.392C159.428 21.0907 159.15 19.928 158.574 18.904C158.02 17.8587 157.262 17.048 156.302 16.472C155.342 15.8747 154.233 15.576 152.974 15.576C151.737 15.576 150.628 15.8747 149.646 16.472C148.686 17.048 147.929 17.8587 147.374 18.904C146.82 19.928 146.542 21.1013 146.542 22.424V22.712C146.542 24.0773 146.841 25.2933 147.438 26.36C148.057 27.4053 148.9 28.2267 149.966 28.824C151.033 29.4 152.249 29.688 153.614 29.688C154.681 29.688 155.673 29.496 156.59 29.112C157.529 28.728 158.318 28.1413 158.958 27.352L159.886 28.408C159.161 29.304 158.244 29.9867 157.134 30.456C156.046 30.904 154.862 31.128 153.582 31.128Z" fill="#2E6F40"/>
<defs>
<clipPath id="clip0_1185_1328">
<rect width="32" height="30" fill="white" transform="translate(0 1)"/>
</clipPath>
</defs>
</svg>
