<svg width="1920" height="1080" viewBox="0 0 1920 1080" xmlns="http://www.w3.org/2000/svg" role="img" aria-label="Isometric raised garden bed with a tree on grass">
  <rect width="1920" height="1080" fill="#f7f4f0"/>
  <rect x="360" y="300" width="1200" height="260" fill="#6fa167" rx="16"/>
  <rect x="360" y="540" width="1200" height="60" fill="#628c4f" rx="12"/>
  <g fill="#85b06e">
    <rect x="420" y="330" width="6" height="28"/>
    <rect x="520" y="340" width="6" height="28"/>
    <rect x="620" y="325" width="6" height="28"/>
    <rect x="820" y="350" width="6" height="28"/>
    <rect x="960" y="320" width="6" height="28"/>
    <rect x="1160" y="345" width="6" height="28"/>
    <rect x="1320" y="330" width="6" height="28"/>
    <rect x="1480" y="360" width="6" height="28"/>
    <rect x="760" y="420" width="6" height="28"/>
    <rect x="940" y="430" width="6" height="28"/>
    <rect x="1140" y="415" width="6" height="28"/>
    <rect x="1340" y="440" width="6" height="28"/>
    <rect x="460" y="410" width="6" height="28"/>
    <rect x="600" y="390" width="6" height="28"/>
    <rect x="740" y="370" width="6" height="28"/>
    <rect x="1400" y="390" width="6" height="28"/>
  </g>
  <g>
    <rect x="780" y="380" width="740" height="170" fill="#c5a479"/>
    <rect x="820" y="410" width="660" height="90" fill="#4d2f1e" rx="6"/>
    <path d="M780 380 L820 410 L820 560 L780 520 Z" fill="#7e5a39"/>
    <path d="M1460 410 L1520 380 L1520 520 L1460 560 Z" fill="#7e5a39"/>
    <path d="M780 520 H1520 V560 H780 Z" fill="#7e5a39"/>
  </g>
  <g>
    <rect x="500" y="300" width="46" height="300" fill="#6f4c2c" rx="8"/>
    <circle cx="523" cy="230" r="150" fill="#8cb873"/>
    <circle cx="553" cy="210" r="130" fill="#95c27d"/>
    <circle cx="440" cy="240" r="40" fill="#6fa167"/>
    <circle cx="600" cy="260" r="30" fill="#6fa167"/>
    <circle cx="500" cy="120" r="28" fill="#6fa167"/>
    <circle cx="620" cy="150" r="24" fill="#6fa167"/>
  </g>
</svg>
