<?xml version="1.0" standalone="no"?>
<!DOCTYPE svg PUBLIC "-//W3C//DTD SVG 20010904//EN"
 "http://www.w3.org/TR/2001/REC-SVG-20010904/DTD/svg10.dtd">
<svg version="1.0" xmlns="http://www.w3.org/2000/svg"
 width="512.000000pt" height="512.000000pt" viewBox="0 0 512.000000 512.000000"
 preserveAspectRatio="xMidYMid meet">
<metadata>
Created by potrace 1.14, written by Peter Selinger 2001-2017
</metadata>
<g transform="translate(0.000000,512.000000) scale(0.100000,-0.100000)"
fill="#000000" stroke="none">
<path d="M2236 5104 c-347 -46 -718 -177 -1016 -358 -334 -204 -662 -535 -860
-868 -166 -279 -283 -604 -335 -928 -26 -160 -31 -521 -11 -690 44 -362 172
-731 360 -1040 204 -334 535 -662 868 -860 279 -166 604 -283 928 -335 160
-26 521 -31 690 -11 362 44 731 172 1040 360 334 204 662 535 860 868 166 279
283 604 335 928 26 160 31 521 11 690 -44 362 -172 731 -360 1040 -204 334
-535 662 -868 860 -279 166 -603 283 -928 335 -146 24 -565 29 -714 9z m-628
-950 c80 -87 108 -138 123 -218 18 -102 -26 -254 -100 -338 l-31 -36 0 -166
c0 -91 3 -166 6 -166 4 0 22 14 42 31 20 18 59 42 87 55 47 21 252 71 260 63
2 -2 5 -41 7 -86 l3 -83 70 0 c175 -1 293 -40 378 -126 l47 -48 0 78 c0 74 -2
81 -31 114 -67 76 -107 213 -94 317 8 66 56 165 126 259 l52 70 78 -81 c97
-101 121 -146 127 -239 7 -114 -28 -225 -102 -319 l-31 -40 5 -242 5 -241 58
44 c32 24 81 50 109 59 53 15 228 21 301 8 35 -5 38 -8 32 -31 -5 -22 -4 -24
17 -18 245 70 301 71 420 12 40 -19 83 -43 96 -52 l22 -16 0 250 0 249 -82 5
c-100 5 -188 43 -266 113 -75 67 -100 127 -113 264 -6 62 -8 115 -5 118 10 10
207 -18 262 -37 74 -26 113 -51 163 -105 22 -24 41 -38 41 -30 0 7 -4 16 -9
19 -17 11 -78 111 -91 149 -36 112 -29 220 20 317 34 66 127 200 139 200 16 0
148 -152 170 -195 33 -66 44 -144 31 -217 -14 -77 -56 -171 -99 -220 l-31 -36
0 -166 c0 -91 3 -166 6 -166 4 0 22 14 42 31 20 18 59 42 87 55 52 23 252 70
261 61 3 -3 6 -56 6 -119 0 -146 -20 -206 -97 -283 -64 -64 -173 -121 -250
-130 l-55 -7 0 -289 0 -289 189 0 c175 0 190 -1 215 -21 31 -25 34 -61 6 -89
-20 -20 -33 -20 -1670 -20 -1637 0 -1650 0 -1670 20 -27 27 -25 56 5 85 l24
25 276 0 275 0 0 99 0 99 -47 -14 c-62 -19 -187 -18 -253 2 -107 32 -166 87
-239 224 -33 63 -41 84 -31 90 7 5 56 21 109 36 71 21 118 29 181 29 78 0 91
-3 160 -37 41 -21 85 -45 98 -54 l22 -16 0 250 0 249 -83 5 c-71 4 -94 10
-159 42 -87 43 -158 111 -189 181 -19 42 -47 260 -35 272 10 10 207 -18 262
-37 74 -26 113 -51 163 -105 22 -24 41 -38 41 -30 0 7 -4 16 -9 19 -17 11 -78
111 -91 149 -36 112 -29 220 20 317 34 66 127 200 139 200 5 0 41 -34 79 -76z
m2622 -2344 c27 -27 25 -56 -5 -85 l-24 -25 -1639 0 -1639 0 -27 21 c-31 25
-34 61 -6 89 20 20 33 20 1670 20 1637 0 1650 0 1670 -20z m10 -442 c13 -25
13 -31 0 -55 l-16 -28 -1659 -3 -1660 -2 -17 21 c-22 26 -23 48 -2 77 l15 22
1662 -2 1661 -3 16 -27z m-16 -409 c28 -22 33 -48 16 -80 -11 -19 -40 -19
-1680 -19 -1640 0 -1669 0 -1680 19 -16 30 -12 50 15 76 l24 25 1639 0 1639 0
27 -21z"/>
<path d="M1504 3983 c-39 -78 -41 -174 -5 -252 14 -28 29 -50 35 -48 25 7 69
118 73 185 4 61 1 72 -27 120 -17 28 -34 52 -39 52 -4 0 -21 -26 -37 -57z"/>
<path d="M3724 3983 c-39 -78 -41 -174 -5 -252 14 -28 29 -50 35 -48 25 7 69
118 73 185 4 61 1 72 -27 120 -17 28 -34 52 -39 52 -4 0 -21 -26 -37 -57z"/>
<path d="M2530 3617 c-30 -61 -32 -73 -28 -139 5 -77 39 -163 61 -155 20 6 57
89 68 152 14 73 2 125 -39 174 l-29 35 -33 -67z"/>
<path d="M1143 3541 c8 -60 48 -116 109 -150 52 -30 144 -58 154 -48 13 13
-10 70 -49 122 -43 59 -107 98 -181 111 l-39 7 6 -42z"/>
<path d="M3363 3541 c8 -60 48 -116 109 -150 52 -30 144 -58 154 -48 13 13
-10 70 -49 122 -43 59 -107 98 -181 111 l-39 7 6 -42z"/>
<path d="M1813 3210 c-29 -10 -66 -28 -82 -39 -38 -28 -88 -106 -99 -158 -9
-41 -9 -43 12 -43 38 0 142 58 179 100 35 37 57 92 57 138 0 26 -1 26 -67 2z"/>
<path d="M4033 3210 c-29 -10 -66 -28 -82 -39 -38 -28 -88 -106 -99 -158 -9
-41 -9 -43 12 -43 38 0 142 58 179 100 35 37 57 92 57 138 0 26 -1 26 -67 2z"/>
<path d="M1981 3091 c-42 -115 -193 -230 -326 -246 l-55 -7 0 -289 0 -289 450
0 450 0 0 240 0 240 -68 0 c-154 0 -305 78 -366 189 -15 29 -36 91 -45 139
l-17 86 -23 -63z"/>
<path d="M2150 3064 c1 -29 35 -96 61 -121 53 -48 229 -103 229 -71 0 27 -44
99 -82 133 -48 44 -87 62 -156 71 -47 6 -52 5 -52 -12z"/>
<path d="M3116 2709 c-16 -56 -43 -119 -62 -149 -65 -102 -187 -160 -339 -160
l-85 0 0 -70 0 -70 530 0 530 0 0 99 0 99 -47 -14 c-62 -19 -187 -18 -253 2
-103 30 -155 77 -224 198 -25 44 -47 73 -50 65z"/>
<path d="M2842 2695 c-53 -16 -105 -55 -143 -108 -45 -62 -41 -71 34 -65 72 6
149 37 191 76 27 25 56 78 56 102 0 14 -86 11 -138 -5z"/>
<path d="M1105 2693 c-11 -3 -24 -9 -29 -13 -13 -13 72 -98 112 -111 43 -15
177 -16 211 -2 l24 9 -32 37 c-48 54 -126 87 -203 86 -35 -1 -72 -3 -83 -6z"/>
<path d="M3325 2693 c-11 -3 -24 -9 -29 -13 -13 -13 72 -98 112 -111 43 -15
177 -16 211 -2 l24 9 -32 37 c-48 54 -126 87 -203 86 -35 -1 -72 -3 -83 -6z"/>
</g>
</svg>
