<svg xmlns="http://www.w3.org/2000/svg" version="1.1" xmlns:xlink="http://www.w3.org/1999/xlink" xmlns:svgjs="http://svgjs.dev/svgjs" width="1000" height="1000"><g clip-path="url(#SvgjsClipPath1259)"><rect width="1000" height="1000" fill="#2e6f40"></rect><g transform="matrix(26.666666666666668,0,0,26.666666666666668,100,100)"><svg xmlns="http://www.w3.org/2000/svg" version="1.1" xmlns:xlink="http://www.w3.org/1999/xlink" xmlns:svgjs="http://svgjs.dev/svgjs" width="30" height="30"><svg width="30" height="30" viewBox="0 0 30 30" fill="none" xmlns="http://www.w3.org/2000/svg">
<g clip-path="url(#clip0_1185_1055)">
<path fill-rule="evenodd" clip-rule="evenodd" d="M0 19C0 18.4477 0.264399 18 0.590551 18H29.4095C29.7356 18 30 18.4477 30 19C30 19.5523 29.7356 20 29.4095 20H0.590551C0.264399 20 0 19.5523 0 19Z" fill="white"></path>
<path fill-rule="evenodd" clip-rule="evenodd" d="M0 24C0 23.4477 0.264399 23 0.590551 23H29.4095C29.7356 23 30 23.4477 30 24C30 24.5523 29.7356 25 29.4095 25H0.590551C0.264399 25 0 24.5523 0 24Z" fill="white"></path>
<path fill-rule="evenodd" clip-rule="evenodd" d="M0 29C0 28.4477 0.264399 28 0.590551 28H29.4095C29.7356 28 30 28.4477 30 29C30 29.5523 29.7356 30 29.4095 30H0.590551C0.264399 30 0 29.5523 0 29Z" fill="white"></path>
<path fill-rule="evenodd" clip-rule="evenodd" d="M6.91406 6.98553L6.91406 18.4699H5.74219L5.74219 6.98553H6.91406Z" fill="white"></path>
<path fill-rule="evenodd" clip-rule="evenodd" d="M6.22576 1L6.7072 1.46756C7.19482 1.94111 7.57126 2.36098 7.81016 2.81901C8.06135 3.3006 8.14035 3.78314 8.11479 4.34611L8.11354 4.37357L8.10973 4.4008C8.03766 4.9154 7.94716 5.37059 7.73313 5.83048C7.51899 6.29061 7.19942 6.71749 6.72184 7.21538L6.30499 7.64994L5.88198 7.22139C5.4308 6.7643 5.11653 6.35022 4.91339 5.87677C4.71118 5.4055 4.63861 4.91995 4.60107 4.35863L4.59888 4.3258L4.60037 4.29294C4.64626 3.28287 5.03623 2.61291 5.82742 1.54011L6.22576 1ZM6.36843 2.80256C5.93673 3.4463 5.79996 3.82001 5.77265 4.31414C5.80732 4.80748 5.86821 5.13011 5.99032 5.4147C6.06013 5.57741 6.15613 5.74181 6.29733 5.92595C6.47041 5.70622 6.58631 5.51732 6.67068 5.33602C6.80773 5.04154 6.87914 4.73063 6.94523 4.26623C6.96001 3.87537 6.90323 3.61423 6.77112 3.36095C6.68366 3.19326 6.55626 3.01535 6.36843 2.80256Z" fill="white"></path>
<path fill-rule="evenodd" clip-rule="evenodd" d="M1.59207 5.5237L1.61738 6.19434C1.64302 6.87358 1.70315 7.43428 1.88369 7.9183C2.0735 8.42722 2.37923 8.80881 2.81471 9.16652L2.83595 9.18396L2.85873 9.19935C3.28938 9.49013 3.68821 9.72745 4.17318 9.87612C4.65842 10.0249 5.18949 10.073 5.87906 10.0513L6.48092 10.0323L6.44549 9.43115C6.40771 8.79 6.31028 8.27939 6.09437 7.81162C5.87945 7.34601 5.56717 6.96718 5.17514 6.56369L5.15222 6.54009L5.1268 6.51921C4.34546 5.87745 3.58665 5.71896 2.25999 5.58909L1.59207 5.5237ZM2.83617 6.83588C3.60343 6.94581 3.97266 7.09423 4.35815 7.40457C4.70156 7.76045 4.90058 8.02157 5.03037 8.30275C5.10457 8.4635 5.1625 8.64485 5.20487 8.873C4.92577 8.8546 4.70784 8.81432 4.51665 8.75571C4.20611 8.66051 3.92727 8.50555 3.53793 8.24391C3.23757 7.99336 3.0815 7.77643 2.98167 7.50877C2.91558 7.33157 2.86862 7.11784 2.83617 6.83588Z" fill="white"></path>
<path fill-rule="evenodd" clip-rule="evenodd" d="M10.4359 8.51035L10.4692 9.18064C10.5028 9.85953 10.4918 10.4233 10.3541 10.9213C10.2094 11.4448 9.93807 11.8516 9.53543 12.2459L9.51579 12.2651L9.49443 12.2824C9.09077 12.6096 8.71413 12.8808 8.24396 13.0712C7.77354 13.2616 7.24869 13.3559 6.55985 13.3943L5.95862 13.4278L5.94152 12.8259C5.92328 12.1839 5.97584 11.6668 6.15016 11.182C6.32368 10.6994 6.60175 10.2948 6.95712 9.85866L6.9779 9.83316L7.00141 9.81014C7.72384 9.10272 8.46595 8.8787 9.77624 8.6337L10.4359 8.51035ZM9.31092 9.92596C8.55616 10.1023 8.20126 10.2824 7.8443 10.6251C7.5332 11.0096 7.3577 11.2871 7.25291 11.5785C7.193 11.7451 7.15109 11.9308 7.12878 12.1618C7.40521 12.1191 7.6188 12.06 7.80415 11.985C8.10522 11.863 8.36949 11.6844 8.73455 11.3898C9.01192 11.114 9.14849 10.8843 9.22461 10.609C9.27501 10.4267 9.30317 10.2097 9.31092 9.92596Z" fill="white"></path>
<path fill-rule="evenodd" clip-rule="evenodd" d="M0.585157 14.0285L0.881055 14.6308C1.18075 15.2409 1.46374 15.7287 1.82553 16.0974C2.20593 16.4851 2.64044 16.7094 3.18376 16.859L3.21026 16.8663L3.23733 16.8711C3.74901 16.9616 4.2099 17.0162 4.71341 16.9548C5.2172 16.8933 5.72194 16.7213 6.34304 16.4209L6.88514 16.1588L6.60828 15.624C6.31299 15.0537 6.01629 14.6268 5.62879 14.2873C5.24307 13.9494 4.80371 13.7303 4.28146 13.5212L4.25092 13.5089L4.2192 13.5002C3.24438 13.2317 2.48671 13.3956 1.22193 13.8165L0.585157 14.0285ZM2.25541 14.7212C3.00105 14.5095 3.39873 14.4949 3.87711 14.6216C4.33559 14.8071 4.62361 14.9647 4.85654 15.1688C4.98971 15.2854 5.1164 15.4275 5.24789 15.6187C4.98544 15.7154 4.76997 15.7673 4.57147 15.7915C4.24905 15.8308 3.93129 15.8027 3.46919 15.722C3.09289 15.6153 2.86209 15.4806 2.66202 15.2767C2.52957 15.1417 2.39974 14.9656 2.25541 14.7212Z" fill="white"></path>
<path fill-rule="evenodd" clip-rule="evenodd" d="M26.4258 6.98553L26.4258 18.4699H25.2539L25.2539 6.98553H26.4258Z" fill="white"></path>
<path fill-rule="evenodd" clip-rule="evenodd" d="M25.7375 1L26.2189 1.46756C26.7065 1.94111 27.083 2.36098 27.3219 2.81901C27.5731 3.3006 27.6521 3.78314 27.6265 4.34611L27.6253 4.37357L27.6214 4.4008C27.5494 4.9154 27.4589 5.37059 27.2448 5.83048C27.0307 6.29061 26.7111 6.71749 26.2336 7.21538L25.8167 7.64994L25.3937 7.22139C24.9425 6.7643 24.6282 6.35022 24.4251 5.87677C24.2229 5.4055 24.1503 4.91995 24.1128 4.35863L24.1106 4.3258L24.1121 4.29294C24.158 3.28287 24.5479 2.61291 25.3391 1.54011L25.7375 1ZM25.8801 2.80256C25.4484 3.4463 25.3117 3.82001 25.2844 4.31414C25.319 4.80748 25.3799 5.13011 25.502 5.4147C25.5718 5.57741 25.6679 5.74181 25.809 5.92595C25.9821 5.70622 26.098 5.51732 26.1824 5.33602C26.3194 5.04154 26.3909 4.73063 26.457 4.26623C26.4717 3.87537 26.4149 3.61423 26.2828 3.36095C26.1954 3.19326 26.068 3.01535 25.8801 2.80256Z" fill="white"></path>
<path fill-rule="evenodd" clip-rule="evenodd" d="M21.104 5.5237L21.1293 6.19434C21.155 6.87358 21.2151 7.43428 21.3956 7.9183C21.5855 8.42722 21.8912 8.80881 22.3267 9.16652L22.3479 9.18396L22.3707 9.19935C22.8013 9.49013 23.2002 9.72745 23.6851 9.87612C24.1704 10.0249 24.7014 10.073 25.391 10.0513L25.9929 10.0323L25.9575 9.43115C25.9197 8.79 25.8222 8.27939 25.6063 7.81162C25.3914 7.34601 25.0791 6.96718 24.6871 6.56369L24.6642 6.54009L24.6388 6.51921C23.8574 5.87745 23.0986 5.71896 21.772 5.58909L21.104 5.5237ZM22.3481 6.83588C23.1154 6.94581 23.4846 7.09423 23.8701 7.40457C24.2135 7.76045 24.4125 8.02157 24.5423 8.30275C24.6165 8.4635 24.6745 8.64485 24.7168 8.873C24.4377 8.8546 24.2198 8.81432 24.0286 8.75571C23.7181 8.66051 23.4392 8.50555 23.0499 8.24391C22.7495 7.99336 22.5935 7.77643 22.4936 7.50877C22.4275 7.33157 22.3806 7.11784 22.3481 6.83588Z" fill="white"></path>
<path fill-rule="evenodd" clip-rule="evenodd" d="M29.9476 8.51035L29.9809 9.18064C30.0145 9.85953 30.0035 10.4233 29.8658 10.9213C29.7211 11.4448 29.4498 11.8516 29.0471 12.2459L29.0275 12.2651L29.0061 12.2824C28.6025 12.6096 28.2258 12.8808 27.7557 13.0712C27.2853 13.2616 26.7604 13.3559 26.0716 13.3943L25.4703 13.4278L25.4532 12.8259C25.435 12.1839 25.4876 11.6668 25.6619 11.182C25.8354 10.6994 26.1135 10.2948 26.4688 9.85866L26.4896 9.83316L26.5131 9.81014C27.2356 9.10272 27.9777 8.8787 29.288 8.6337L29.9476 8.51035ZM28.8226 9.92596C28.0679 10.1023 27.713 10.2824 27.356 10.6251C27.0449 11.0096 26.8694 11.2871 26.7646 11.5785C26.7047 11.7451 26.6628 11.9308 26.6405 12.1618C26.9169 12.1191 27.1305 12.06 27.3159 11.985C27.6169 11.863 27.8812 11.6844 28.2463 11.3898C28.5236 11.114 28.6602 10.8843 28.7363 10.609C28.7867 10.4267 28.8149 10.2097 28.8226 9.92596Z" fill="white"></path>
<path fill-rule="evenodd" clip-rule="evenodd" d="M20.0969 14.0285L20.3928 14.6308C20.6925 15.2409 20.9755 15.7287 21.3373 16.0974C21.7177 16.4851 22.1522 16.7094 22.6955 16.859L22.722 16.8663L22.749 16.8711C23.2607 16.9616 23.7216 17.0162 24.2251 16.9548C24.7289 16.8933 25.2337 16.7213 25.8548 16.4209L26.3969 16.1588L26.12 15.624C25.8247 15.0537 25.528 14.6268 25.1405 14.2873C24.7548 13.9494 24.3154 13.7303 23.7932 13.5212L23.7626 13.5089L23.7309 13.5002C22.7561 13.2317 21.9984 13.3956 20.7336 13.8165L20.0969 14.0285ZM21.7671 14.7212C22.5128 14.5095 22.9104 14.4949 23.3888 14.6216C23.8473 14.8071 24.1353 14.9647 24.3683 15.1688C24.5014 15.2854 24.6281 15.4275 24.7596 15.6187C24.4972 15.7154 24.2817 15.7673 24.0832 15.7915C23.7608 15.8308 23.443 15.8027 22.9809 15.722C22.6046 15.6153 22.3738 15.4806 22.1737 15.2767C22.0413 15.1417 21.9115 14.9656 21.7671 14.7212Z" fill="white"></path>
<path fill-rule="evenodd" clip-rule="evenodd" d="M15.9434 9.96991L15.9434 18.4699H14.7715L14.7715 9.96991H15.9434Z" fill="white"></path>
<path fill-rule="evenodd" clip-rule="evenodd" d="M15.2489 4.16406L15.7304 4.63162C16.218 5.10517 16.5945 5.52504 16.8334 5.98308C17.0845 6.46466 17.1635 6.9472 17.138 7.51017L17.1367 7.53764L17.1329 7.56486C17.0609 8.07946 16.9703 8.53466 16.7563 8.99454C16.5422 9.45467 16.2226 9.88156 15.745 10.3794L15.3282 10.814L14.9052 10.3854C14.454 9.92836 14.1397 9.51429 13.9366 9.04084C13.7344 8.56957 13.6618 8.08401 13.6243 7.52269L13.6221 7.48987L13.6236 7.457C13.6695 6.44693 14.0594 5.77698 14.8506 4.70418L15.2489 4.16406ZM15.3916 5.96662C14.9599 6.61037 14.8231 6.98407 14.7958 7.4782C14.8305 7.97154 14.8914 8.29417 15.0135 8.57876C15.0833 8.74147 15.1793 8.90587 15.3205 9.09001C15.4936 8.87029 15.6095 8.68138 15.6939 8.50009C15.8309 8.2056 15.9023 7.89469 15.9684 7.43029C15.9832 7.03943 15.9264 6.77829 15.7943 6.52501C15.7069 6.35732 15.5795 6.17941 15.3916 5.96662Z" fill="white"></path>
<path fill-rule="evenodd" clip-rule="evenodd" d="M10.361 10.0357L10.4447 10.7016C10.5294 11.376 10.6382 11.9294 10.8602 12.3958C11.0937 12.8862 11.4315 13.2397 11.8965 13.5581L11.9192 13.5737L11.9432 13.587C12.3976 13.8391 12.8156 14.0408 13.3116 14.1466C13.808 14.2525 14.3412 14.2542 15.0263 14.1724L15.6242 14.101L15.5365 13.5053C15.443 12.8699 15.3014 12.3697 15.0456 11.9225C14.7909 11.4774 14.4468 11.1273 14.0211 10.7595L13.9962 10.738L13.969 10.7194C13.1347 10.1482 12.365 10.0564 11.0321 10.0427L10.361 10.0357ZM11.7147 11.2345C12.4887 11.2771 12.8694 11.3928 13.2805 11.6684C13.6536 11.993 13.8746 12.2357 14.0284 12.5045C14.1164 12.6582 14.1899 12.8338 14.252 13.0574C13.9723 13.0634 13.7517 13.0423 13.5562 13.0005C13.2385 12.9328 12.9472 12.8027 12.5365 12.576C12.2155 12.3526 12.0411 12.1501 11.9183 11.8921C11.837 11.7214 11.7716 11.5125 11.7147 11.2345Z" fill="white"></path>
<path fill-rule="evenodd" clip-rule="evenodd" d="M20.4863 13.4549L20.3335 14.1084C20.1788 14.7703 20.0127 15.3092 19.7432 15.7499C19.4597 16.2132 19.0868 16.5295 18.5911 16.7975L18.5669 16.8106L18.5416 16.8214C18.0634 17.0246 17.6266 17.1815 17.1222 17.2349C16.6175 17.2883 16.087 17.2343 15.4142 17.0813L14.827 16.9478L14.9765 16.3645C15.1359 15.7424 15.329 15.2597 15.6302 14.8417C15.93 14.4257 16.3088 14.1134 16.7707 13.7921L16.7977 13.7733L16.8266 13.7577C17.716 13.2768 18.4912 13.266 19.8182 13.3917L20.4863 13.4549ZM19.0147 14.5056C18.2406 14.4671 17.8498 14.5424 17.4122 14.7735C17.0072 15.0573 16.762 15.2756 16.5809 15.5269C16.4774 15.6705 16.386 15.8375 16.3008 16.0533C16.5783 16.0885 16.7999 16.0906 16.9988 16.0695C17.3218 16.0353 17.6251 15.9364 18.0572 15.7539C18.3998 15.5652 18.5944 15.3821 18.7435 15.1384C18.8422 14.977 18.9291 14.7762 19.0147 14.5056Z" fill="white"></path>
</g>
<defs>
<clipPath id="clip0_1185_1055">
<rect width="30" height="30" fill="white"></rect>
</clipPath>
<clipPath id="SvgjsClipPath1259"><rect width="1000" height="1000" x="0" y="0" rx="200" ry="200"></rect></clipPath></defs>
</svg></svg></g></g></svg>