<?xml version="1.0" standalone="no"?>
<!DOCTYPE svg PUBLIC "-//W3C//DTD SVG 20010904//EN"
 "http://www.w3.org/TR/2001/REC-SVG-20010904/DTD/svg10.dtd">
<svg version="1.0" xmlns="http://www.w3.org/2000/svg"
 width="512.000000pt" height="512.000000pt" viewBox="0 0 512.000000 512.000000"
 preserveAspectRatio="xMidYMid meet">
<metadata>
Created by potrace 1.14, written by Peter Selinger 2001-2017
</metadata>
<g transform="translate(0.000000,512.000000) scale(0.100000,-0.100000)"
fill="#000000" stroke="none">
<path d="M1470 4163 c-104 -140 -139 -248 -120 -366 13 -81 37 -138 84 -200
49 -65 45 -71 -9 -14 -77 79 -176 117 -347 132 l-78 7 0 -33 c0 -84 21 -204
44 -254 52 -113 180 -196 339 -217 l87 -12 0 -243 0 -243 -59 39 c-87 56 -157
75 -250 68 -69 -5 -271 -60 -271 -73 0 -3 19 -42 42 -86 53 -103 122 -179 190
-209 69 -30 221 -38 297 -16 l51 15 0 -99 0 -99 -271 0 c-266 0 -301 -4 -321
-34 -14 -20 -8 -56 12 -76 20 -20 33 -20 1670 -20 1637 0 1650 0 1670 20 23
23 26 58 6 86 -13 17 -30 19 -215 22 l-201 3 0 290 0 289 30 0 c41 0 142 35
191 66 145 91 201 214 184 402 l-7 73 -41 -6 c-143 -23 -249 -62 -319 -117
l-38 -30 0 164 0 163 29 36 c47 57 78 124 97 205 31 140 1 232 -117 359 -39
41 -75 75 -80 75 -14 0 -106 -129 -139 -195 -73 -146 -57 -306 44 -438 49 -65
45 -71 -9 -14 -77 79 -176 117 -347 132 l-78 7 0 -33 c0 -84 21 -204 44 -254
52 -113 180 -196 339 -217 l87 -12 0 -243 0 -243 -59 39 c-123 79 -240 90
-406 37 -44 -14 -83 -26 -86 -26 -3 0 -4 11 -2 24 5 22 1 25 -43 32 -27 4 -94
7 -149 7 -118 0 -186 -22 -265 -84 l-49 -39 -3 242 -3 241 42 54 c60 77 85
149 91 261 4 88 3 96 -26 155 -17 35 -63 97 -103 140 l-72 79 -19 -24 c-59
-74 -129 -191 -147 -245 -43 -128 -14 -271 78 -387 28 -35 31 -45 31 -109 l0
-70 -50 47 c-87 82 -194 115 -367 116 l-73 0 0 33 c0 17 -3 56 -7 85 l-6 53
-41 -6 c-142 -23 -248 -62 -318 -117 l-38 -30 0 164 0 163 29 36 c47 57 78
124 97 205 31 140 1 232 -117 359 -39 41 -75 75 -80 75 -5 0 -32 -30 -59 -67z
m99 -159 c52 -66 50 -187 -4 -280 -31 -53 -44 -49 -72 24 -29 74 -24 165 11
230 16 28 33 52 37 52 4 0 17 -12 28 -26z m2220 0 c52 -66 50 -187 -4 -280
-31 -53 -44 -49 -72 24 -29 74 -24 165 11 230 16 28 33 52 37 52 4 0 17 -12
28 -26z m-1180 -378 c27 -44 33 -95 20 -157 -11 -54 -56 -149 -70 -149 -18 0
-52 96 -57 161 -4 64 -2 75 28 134 36 71 42 72 79 11z m-1363 -71 c48 -20 113
-83 140 -137 35 -68 33 -80 -13 -72 -94 16 -204 97 -223 163 -18 65 -15 73 28
65 20 -4 51 -12 68 -19z m2220 0 c48 -20 113 -83 140 -137 35 -69 33 -80 -13
-72 -94 16 -205 98 -223 164 -18 64 -15 72 28 64 20 -4 51 -12 68 -19z m-1591
-372 c-4 -27 -16 -62 -26 -80 -34 -55 -119 -113 -186 -128 -31 -6 -33 -5 -33
22 0 39 51 124 100 165 34 29 110 65 144 67 4 1 5 -20 1 -46z m2220 0 c-4 -27
-16 -62 -26 -80 -34 -55 -119 -113 -186 -128 -31 -6 -33 -5 -33 22 0 39 51
124 100 165 34 29 110 65 144 67 4 1 5 -20 1 -46z m-2031 -250 c32 -64 82
-107 174 -151 63 -30 86 -36 168 -40 l94 -5 0 -238 0 -239 -450 0 -450 0 0
290 0 290 30 0 c47 0 148 38 206 76 72 48 116 99 144 168 l24 57 17 -79 c10
-44 29 -102 43 -129z m214 121 c62 -26 139 -106 157 -163 7 -23 6 -24 -49 -19
-111 9 -215 88 -232 177 l-7 34 49 -8 c27 -4 64 -13 82 -21z m964 -519 c66
-73 126 -97 249 -103 68 -3 112 0 148 11 l51 15 0 -99 0 -99 -530 0 -530 0 0
71 0 72 48 -6 c106 -12 246 32 323 101 53 48 76 85 104 171 l18 54 35 -68 c20
-37 58 -91 84 -120z m-262 165 c0 -19 -38 -85 -62 -107 -37 -35 -112 -63 -183
-70 -36 -3 -65 -2 -65 2 0 5 11 27 25 51 30 51 108 110 161 123 54 13 124 13
124 1z m-1672 -31 c55 -27 102 -68 102 -90 0 -14 -102 -29 -154 -23 -28 4 -68
15 -88 25 -36 18 -95 81 -91 96 3 13 44 21 109 22 49 1 73 -5 122 -30z m2220
0 c55 -27 102 -68 102 -90 0 -14 -102 -29 -154 -23 -28 4 -68 15 -88 25 -36
18 -95 81 -91 96 3 13 44 21 109 22 49 1 73 -5 122 -30z"/>
<path d="M890 1810 c-23 -23 -26 -58 -6 -86 14 -19 44 -19 1653 -22 901 -1
1648 0 1660 3 52 12 70 68 33 105 -20 20 -33 20 -1670 20 -1637 0 -1650 0
-1670 -20z"/>
<path d="M887 1382 c-22 -24 -21 -65 1 -85 17 -16 148 -17 1674 -17 1591 0
1656 1 1671 18 22 24 21 65 -1 85 -17 16 -148 17 -1674 17 -1591 0 -1656 -1
-1671 -18z"/>
<path d="M902 968 c-28 -14 -38 -51 -23 -84 l11 -24 1670 0 1670 0 11 24 c16
35 3 75 -27 86 -38 15 -3282 12 -3312 -2z"/>
</g>
</svg>
