<svg width="198" height="32" viewBox="0 0 198 32" fill="none" xmlns="http://www.w3.org/2000/svg" role="img" aria-labelledby="title">
    <title id="title">Gredice Storybook</title>
    <rect width="32" height="32" rx="8" fill="#111111"/>
    <g fill="white" fill-rule="evenodd" clip-rule="evenodd" transform="translate(4 0) scale(0.8)">
        <path d="M0 24c0-.552.264-1 .59-1h28.82c.326 0 .59.448.59 1s-.264 1-.59 1H.59C.265 25 0 24.552 0 24ZM0 29c0-.552.264-1 .59-1h28.82c.326 0 .59.448.59 1s-.264 1-.59 1H.59C.265 30 0 29.552 0 29ZM0 34c0-.552.264-1 .59-1h28.82c.326 0 .59.448.59 1s-.264 1-.59 1H.59C.265 35 0 34.552 0 34Z"/>
        <path d="M6.914 11.986V23.47H5.742V11.986h1.172Z"/>
        <path d="m6.226 6 .481.468c.488.473.864.893 1.103 1.351.251.482.33.964.305 1.527l-.001.028-.004.027c-.072.514-.163.97-.377 1.43-.214.46-.534.886-1.011 1.384l-.417.435-.423-.429c-.451-.457-.765-.87-.969-1.344-.202-.472-.274-.957-.312-1.518L4.6 9.326l.001-.033c.046-1.01.436-1.68 1.227-2.753L6.226 6Zm.142 1.803c-.431.643-.568 1.017-.595 1.511.034.493.095.816.217 1.1.07.163.166.328.307.512.173-.22.29-.409.374-.59.137-.295.208-.605.274-1.07.015-.39-.042-.652-.174-.905a2.85 2.85 0 0 0-.403-.558ZM1.592 10.524l.025.67c.026.68.086 1.24.267 1.724.19.51.495.89.93 1.248l.022.018.023.015c.43.291.83.528 1.314.677.485.149 1.016.197 1.706.175l.602-.019-.036-.6c-.037-.642-.135-1.153-.35-1.62-.216-.466-.528-.845-.92-1.248l-.023-.024-.025-.02c-.782-.643-1.54-.801-2.867-.93l-.668-.066Zm1.244 1.312c.767.11 1.137.258 1.522.569.344.356.543.617.672.898.075.16.133.342.175.57a2.975 2.975 0 0 1-.688-.117c-.31-.095-.59-.25-.98-.512-.3-.25-.455-.468-.555-.735a2.852 2.852 0 0 1-.146-.673ZM10.436 13.51l.033.67c.034.68.023 1.243-.115 1.741-.145.524-.416.93-.819 1.325l-.02.02-.02.016c-.404.328-.78.599-1.251.79-.47.19-.995.284-1.684.322l-.601.034-.017-.602c-.019-.642.034-1.16.208-1.644.174-.483.452-.887.807-1.323l.02-.026.024-.023c.723-.707 1.465-.931 2.775-1.176l.66-.124ZM9.31 14.926c-.755.176-1.11.356-1.467.7-.31.384-.486.661-.591.952a2.36 2.36 0 0 0-.124.584 2.98 2.98 0 0 0 .675-.177c.301-.122.565-.3.93-.595.278-.276.414-.506.49-.781.051-.182.08-.4.087-.683ZM.585 19.029l.296.602c.3.61.583 1.098.945 1.466.38.388.814.612 1.358.762l.026.007.027.005c.512.09.973.145 1.476.084.504-.062 1.009-.234 1.63-.534l.542-.262-.277-.535c-.295-.57-.592-.997-.98-1.337-.385-.338-.824-.557-1.347-.766l-.03-.012-.032-.009c-.975-.268-1.732-.104-2.997.317l-.637.212Zm1.67.692c.746-.212 1.144-.226 1.622-.1.459.186.747.344.98.548.133.116.26.258.39.45a2.974 2.974 0 0 1-.676.172c-.322.04-.64.012-1.102-.069-.376-.107-.607-.241-.807-.445a2.85 2.85 0 0 1-.407-.556ZM26.426 11.986V23.47h-1.172V11.986h1.172Z"/>
        <path d="m25.738 6 .48.468c.488.473.865.893 1.104 1.351.251.482.33.964.305 1.527l-.002.028-.004.027c-.072.514-.162.97-.376 1.43-.214.46-.534.886-1.011 1.384l-.417.435-.423-.429c-.451-.457-.766-.87-.969-1.344-.202-.472-.275-.957-.312-1.518l-.002-.033.001-.033c.046-1.01.436-1.68 1.227-2.753l.399-.54Zm.142 1.803c-.432.643-.568 1.017-.596 1.511.035.493.096.816.218 1.1.07.163.166.328.307.512.173-.22.289-.409.373-.59.137-.295.209-.605.275-1.07.015-.39-.042-.652-.174-.905a2.845 2.845 0 0 0-.403-.558ZM21.104 10.524l.025.67c.026.68.086 1.24.267 1.724.19.51.495.89.93 1.248l.022.018.023.015c.43.291.83.528 1.314.677.485.149 1.016.197 1.706.175l.602-.019-.035-.6c-.038-.642-.136-1.153-.352-1.62-.215-.466-.527-.845-.919-1.248l-.023-.024-.025-.02c-.782-.643-1.54-.801-2.867-.93l-.668-.066Zm1.244 1.312c.767.11 1.137.258 1.522.569.343.356.543.617.672.898.074.16.132.342.175.57a2.975 2.975 0 0 1-.688-.117c-.31-.095-.59-.25-.98-.512-.3-.25-.456-.468-.555-.735a2.854 2.854 0 0 1-.146-.673ZM29.948 13.51l.033.67c.034.68.022 1.243-.115 1.741-.145.524-.416.93-.819 1.325l-.02.02-.02.016c-.405.328-.781.599-1.251.79-.47.19-.996.284-1.684.322l-.602.034-.017-.602c-.018-.642.035-1.16.209-1.644.173-.483.451-.887.807-1.323l.02-.026.024-.023c.723-.707 1.465-.931 2.775-1.176l.66-.124Zm-1.125 1.416c-.755.176-1.11.356-1.467.7-.311.384-.487.661-.591.952a2.36 2.36 0 0 0-.125.584 2.98 2.98 0 0 0 .676-.177c.3-.122.565-.3.93-.595.278-.276.414-.506.49-.781.05-.182.079-.4.087-.683ZM20.097 19.029l.296.602c.3.61.582 1.098.944 1.466.38.388.815.612 1.358.762l.027.007.027.005c.512.09.973.145 1.476.084.504-.062 1.009-.234 1.63-.534l.542-.262-.277-.535c-.295-.57-.592-.997-.98-1.337-.385-.338-.825-.557-1.347-.766l-.03-.012-.032-.009c-.975-.268-1.733-.104-2.997.317l-.637.212Zm1.67.692c.746-.212 1.143-.226 1.622-.1.458.186.746.344.98.548.132.116.26.258.39.45a2.973 2.973 0 0 1-.676.172c-.322.04-.64.012-1.102-.069-.376-.107-.607-.241-.807-.445a2.855 2.855 0 0 1-.407-.556ZM15.943 14.97v8.5h-1.171v-8.5h1.171Z"/>
        <path d="m15.249 9.164.481.468c.488.473.864.893 1.103 1.351.252.482.33.964.305 1.527l-.001.028-.004.027c-.072.514-.163.97-.377 1.43-.214.46-.533.887-1.011 1.384l-.417.435-.423-.429c-.451-.457-.765-.87-.968-1.344-.203-.471-.275-.957-.313-1.518l-.002-.033.002-.033c.045-1.01.435-1.68 1.227-2.753l.398-.54Zm.143 1.803c-.432.643-.569 1.017-.596 1.511.035.494.095.816.218 1.1.07.164.165.328.306.512.174-.22.29-.409.374-.59.137-.294.208-.605.274-1.07.015-.39-.042-.652-.174-.905a2.845 2.845 0 0 0-.402-.558ZM10.361 15.036l.084.666c.084.674.193 1.227.415 1.694.234.49.572.844 1.037 1.162l.022.016.024.013c.455.252.873.454 1.369.56.496.106 1.03.107 1.714.025l.598-.071-.088-.596c-.093-.635-.235-1.135-.49-1.582-.255-.446-.6-.796-1.025-1.163l-.025-.022-.027-.019c-.834-.57-1.604-.663-2.937-.676l-.671-.007Zm1.354 1.199c.774.042 1.154.158 1.566.433.373.325.594.568.747.837.088.153.162.329.224.552-.28.006-.5-.015-.696-.056-.317-.068-.609-.198-1.02-.425-.32-.223-.495-.426-.618-.684a2.85 2.85 0 0 1-.203-.657ZM20.486 18.455l-.152.653c-.155.662-.321 1.201-.59 1.642-.284.463-.657.78-1.153 1.047l-.024.014-.025.01c-.479.204-.915.36-1.42.414-.505.053-1.035 0-1.708-.154l-.587-.133.15-.584c.159-.622.352-1.104.653-1.522.3-.416.679-.729 1.14-1.05l.028-.019.029-.015c.889-.481 1.664-.492 2.991-.366l.668.063Zm-1.471 1.05c-.774-.038-1.165.037-1.603.268-.405.284-.65.503-.831.754-.104.143-.195.31-.28.526.277.035.499.038.698.017.323-.035.626-.134 1.058-.316.343-.189.537-.372.687-.616a2.85 2.85 0 0 0 .27-.632Z"/>
    </g>
    <text x="42" y="20.5" fill="#111111" font-family="Inter, ui-sans-serif, system-ui, -apple-system, BlinkMacSystemFont, 'Segoe UI', sans-serif" font-size="15" font-weight="700" letter-spacing="0">Gredice Storybook</text>
</svg>
