<svg width="198" height="32" viewBox="0 0 198 32" fill="none" xmlns="http://www.w3.org/2000/svg" role="img" aria-labelledby="title">
    <title id="title">Gredice Storybook</title>
    <rect width="32" height="32" rx="8" fill="#7C3AED"/>
    <path d="M7 21H25" stroke="white" stroke-width="2" stroke-linecap="round"/>
    <path d="M7 25H25" stroke="white" stroke-width="2" stroke-linecap="round"/>
    <path d="M7 29H25" stroke="white" stroke-width="2" stroke-linecap="round"/>
    <path d="M12 18V9" stroke="white" stroke-width="2" stroke-linecap="round"/>
    <path d="M20 18V9" stroke="white" stroke-width="2" stroke-linecap="round"/>
    <path d="M12 10C9.5 8.7 8.6 6.8 8.4 4.8C10.7 5 12.5 6.1 14 8.2C14.8 9.4 13.4 10.8 12 10Z" fill="white"/>
    <path d="M20 10C22.5 8.7 23.4 6.8 23.6 4.8C21.3 5 19.5 6.1 18 8.2C17.2 9.4 18.6 10.8 20 10Z" fill="white"/>
    <text x="42" y="20.5" fill="#2E1065" font-family="Inter, ui-sans-serif, system-ui, -apple-system, BlinkMacSystemFont, 'Segoe UI', sans-serif" font-size="15" font-weight="700" letter-spacing="0">Gredice Storybook</text>
</svg>
