<svg width="163" height="44" viewBox="0 0 163 44" fill="none" xmlns="http://www.w3.org/2000/svg">
<g clip-path="url(#clip0_1185_1328)">
<path fill-rule="evenodd" clip-rule="evenodd" d="M0.125 24.2227C0.125 23.8991 0.404822 23.6367 0.75 23.6367H31.25C31.5952 23.6367 31.875 23.8991 31.875 24.2227C31.875 24.5463 31.5952 24.8086 31.25 24.8086H0.75C0.404822 24.8086 0.125 24.5463 0.125 24.2227Z" fill="#2E6F40"/>
<path fill-rule="evenodd" clip-rule="evenodd" d="M0.125 27.9727C0.125 27.6491 0.404822 27.3867 0.75 27.3867H31.25C31.5952 27.3867 31.875 27.6491 31.875 27.9727C31.875 28.2963 31.5952 28.5586 31.25 28.5586H0.75C0.404822 28.5586 0.125 28.2963 0.125 27.9727Z" fill="#2E6F40"/>
<path fill-rule="evenodd" clip-rule="evenodd" d="M0.125 31.7227C0.125 31.3991 0.404822 31.1367 0.75 31.1367H31.25C31.5952 31.1367 31.875 31.3991 31.875 31.7227C31.875 32.0463 31.5952 32.3086 31.25 32.3086H0.75C0.404822 32.3086 0.125 32.0463 0.125 31.7227Z" fill="#2E6F40"/>
<path fill-rule="evenodd" clip-rule="evenodd" d="M0.125 35.4727C0.125 35.1491 0.404822 34.8867 0.75 34.8867H31.25C31.5952 34.8867 31.875 35.1491 31.875 35.4727C31.875 35.7963 31.5952 36.0586 31.25 36.0586H0.75C0.404822 36.0586 0.125 35.7963 0.125 35.4727Z" fill="#2E6F40"/>
<path fill-rule="evenodd" clip-rule="evenodd" d="M7.03125 12.2109L7.03125 23.6953H5.78125L5.78125 12.2109H7.03125Z" fill="#2E6F40"/>
<path fill-rule="evenodd" clip-rule="evenodd" d="M6.29686 6.22539L6.8104 6.69294C7.33053 7.16649 7.73207 7.58636 7.98689 8.0444C8.25482 8.52599 8.3391 9.00853 8.31183 9.5715L8.3105 9.59896L8.30643 9.62618C8.22956 10.1408 8.13302 10.596 7.90473 11.0559C7.67631 11.516 7.33544 11.9429 6.82601 12.4408L6.38138 12.8753L5.93017 12.4468C5.44891 11.9897 5.11369 11.5756 4.897 11.1022C4.68131 10.6309 4.60391 10.1453 4.56387 9.58402L4.56152 9.55119L4.56312 9.51833C4.61207 8.50825 5.02803 7.8383 5.87197 6.7655L6.29686 6.22539ZM6.44905 8.02795C5.98856 8.67169 5.84267 9.0454 5.81354 9.53953C5.85053 10.0329 5.91547 10.3555 6.04572 10.6401C6.12019 10.8028 6.2226 10.9672 6.37321 11.1513C6.55783 10.9316 6.68145 10.7427 6.77144 10.5614C6.91763 10.2669 6.99381 9.95602 7.0643 9.49161C7.08007 9.10075 7.0195 8.83962 6.87859 8.58634C6.78529 8.41864 6.6494 8.24073 6.44905 8.02795Z" fill="#2E6F40"/>
<path fill-rule="evenodd" clip-rule="evenodd" d="M1.35446 10.7491L1.38146 11.4197C1.40881 12.099 1.47295 12.6597 1.66552 13.1437C1.86798 13.6526 2.1941 14.0342 2.6586 14.3919L2.68126 14.4094L2.70556 14.4247C3.16492 14.7155 3.59034 14.9529 4.10765 15.1015C4.62523 15.2503 5.1917 15.2984 5.92724 15.2767L6.56923 15.2577L6.53144 14.6565C6.49114 14.0154 6.38721 13.5048 6.15691 13.037C5.92766 12.5714 5.59456 12.1926 5.1764 11.7891L5.15195 11.7655L5.12483 11.7446C4.2914 11.1029 3.48201 10.9444 2.06691 10.8145L1.35446 10.7491ZM2.68149 12.0613C3.49991 12.1712 3.89376 12.3196 4.30494 12.63C4.67125 12.9859 4.88354 13.247 5.02198 13.5281C5.10113 13.6889 5.16292 13.8703 5.20811 14.0984C4.9104 14.08 4.67794 14.0397 4.47401 13.9811C4.14276 13.8859 3.84533 13.7309 3.43004 13.4693C3.10966 13.2188 2.94319 13.0018 2.8367 12.7342C2.7662 12.557 2.71611 12.3432 2.68149 12.0613Z" fill="#2E6F40"/>
<path fill-rule="evenodd" clip-rule="evenodd" d="M10.7879 13.7357L10.8234 14.406C10.8593 15.0849 10.8475 15.6487 10.7007 16.1466C10.5463 16.6702 10.2569 17.0769 9.82742 17.4712L9.80647 17.4905L9.78369 17.5078C9.35312 17.835 8.95137 18.1062 8.44986 18.2965C7.94807 18.487 7.38823 18.5813 6.65347 18.6197L6.01216 18.6532L5.99392 18.0513C5.97447 17.4093 6.03052 16.8921 6.21647 16.4073C6.40156 15.9248 6.69817 15.5202 7.07723 15.084L7.09939 15.0585L7.12447 15.0355C7.89506 14.3281 8.68664 14.1041 10.0843 13.8591L10.7879 13.7357ZM9.58795 15.1513C8.78287 15.3277 8.40431 15.5078 8.02355 15.8505C7.69171 16.235 7.50451 16.5124 7.39274 16.8039C7.32883 16.9705 7.28413 17.1562 7.26033 17.3872C7.55519 17.3445 7.78302 17.2854 7.98073 17.2103C8.30187 17.0884 8.58376 16.9098 8.97315 16.6152C9.26902 16.3394 9.41469 16.1097 9.49589 15.8344C9.54964 15.6521 9.57968 15.4351 9.58795 15.1513Z" fill="#2E6F40"/>
<path fill-rule="evenodd" clip-rule="evenodd" d="M0.280402 19.2538L0.596025 19.8562C0.915698 20.4663 1.21755 20.9541 1.60347 21.3228C2.00923 21.7105 2.4727 21.9348 3.05224 22.0844L3.08051 22.0917L3.10938 22.0965C3.65518 22.187 4.14679 22.2416 4.68387 22.1801C5.22124 22.1187 5.75963 21.9467 6.42214 21.6463L7.00038 21.3841L6.70506 20.8494C6.39008 20.2791 6.07361 19.8522 5.66027 19.5127C5.24884 19.1748 4.78019 18.9557 4.22312 18.7465L4.19055 18.7343L4.15671 18.7256C3.11691 18.4571 2.30873 18.6209 0.959625 19.0419L0.280402 19.2538ZM2.062 19.9465C2.85735 19.7349 3.28154 19.7203 3.79182 19.847C4.28086 20.0325 4.58808 20.1901 4.83654 20.3941C4.97859 20.5108 5.11372 20.6529 5.25399 20.8441C4.97403 20.9408 4.7442 20.9927 4.53247 21.0169C4.18856 21.0562 3.84961 21.0281 3.35671 20.9474C2.95532 20.8407 2.70913 20.706 2.49573 20.5021C2.35444 20.3671 2.21595 20.1909 2.062 19.9465Z" fill="#2E6F40"/>
<path fill-rule="evenodd" clip-rule="evenodd" d="M27.8438 12.2109L27.8438 23.6953H26.5938L26.5938 12.2109H27.8438Z" fill="#2E6F40"/>
<path fill-rule="evenodd" clip-rule="evenodd" d="M27.1096 6.22539L27.6231 6.69294C28.1433 7.16649 28.5448 7.58636 28.7996 8.0444C29.0676 8.52599 29.1518 9.00853 29.1246 9.5715L29.1232 9.59896L29.1192 9.62618C29.0423 10.1408 28.9458 10.596 28.7175 11.0559C28.4891 11.516 28.1482 11.9429 27.6388 12.4408L27.1941 12.8753L26.7429 12.4468C26.2617 11.9897 25.9264 11.5756 25.7097 11.1022C25.4941 10.6309 25.4166 10.1453 25.3766 9.58402L25.3743 9.55119L25.3759 9.51833C25.4248 8.50825 25.8408 7.8383 26.6847 6.7655L27.1096 6.22539ZM27.2618 8.02795C26.8013 8.67169 26.6554 9.0454 26.6263 9.53953C26.6633 10.0329 26.7282 10.3555 26.8585 10.6401C26.9329 10.8028 27.0353 10.9672 27.186 11.1513C27.3706 10.9316 27.4942 10.7427 27.5842 10.5614C27.7304 10.2669 27.8066 9.95602 27.877 9.49161C27.8928 9.10075 27.8322 8.83962 27.6913 8.58634C27.598 8.41864 27.4621 8.24073 27.2618 8.02795Z" fill="#2E6F40"/>
<path fill-rule="evenodd" clip-rule="evenodd" d="M22.1672 10.7491L22.1942 11.4197C22.2215 12.099 22.2857 12.6597 22.4783 13.1437C22.6807 13.6526 23.0068 14.0342 23.4713 14.3919L23.494 14.4094L23.5183 14.4247C23.9777 14.7155 24.4031 14.9529 24.9204 15.1015C25.438 15.2503 26.0044 15.2984 26.74 15.2767L27.382 15.2577L27.3442 14.6565C27.3039 14.0154 27.2 13.5048 26.9697 13.037C26.7404 12.5714 26.4073 12.1926 25.9891 11.7891L25.9647 11.7655L25.9376 11.7446C25.1041 11.1029 24.2948 10.9444 22.8797 10.8145L22.1672 10.7491ZM23.4942 12.0613C24.3126 12.1712 24.7065 12.3196 25.1177 12.63C25.484 12.9859 25.6963 13.247 25.8347 13.5281C25.9139 13.6889 25.9757 13.8703 26.0209 14.0984C25.7231 14.08 25.4907 14.0397 25.2868 13.9811C24.9555 13.8859 24.6581 13.7309 24.2428 13.4693C23.9224 13.2188 23.7559 13.0018 23.6494 12.7342C23.5789 12.557 23.5289 12.3432 23.4942 12.0613Z" fill="#2E6F40"/>
<path fill-rule="evenodd" clip-rule="evenodd" d="M31.6004 13.7357L31.6359 14.406C31.6718 15.0849 31.66 15.6487 31.5132 16.1466C31.3588 16.6702 31.0694 17.0769 30.6399 17.4712L30.619 17.4905L30.5962 17.5078C30.1656 17.835 29.7639 18.1062 29.2624 18.2965C28.7606 18.487 28.2007 18.5813 27.466 18.6197L26.8247 18.6532L26.8064 18.0513C26.787 17.4093 26.843 16.8921 27.029 16.4073C27.2141 15.9248 27.5107 15.5202 27.8897 15.084L27.9119 15.0585L27.937 15.0355C28.7076 14.3281 29.4991 14.1041 30.8968 13.8591L31.6004 13.7357ZM30.4004 15.1513C29.5954 15.3277 29.2168 15.5078 28.836 15.8505C28.5042 16.235 28.317 16.5124 28.2052 16.8039C28.1413 16.9705 28.0966 17.1562 28.0728 17.3872C28.3677 17.3445 28.5955 17.2854 28.7932 17.2103C29.1144 17.0884 29.3963 16.9098 29.7856 16.6152C30.0815 16.3394 30.2272 16.1097 30.3084 15.8344C30.3621 15.6521 30.3922 15.4351 30.4004 15.1513Z" fill="#2E6F40"/>
<path fill-rule="evenodd" clip-rule="evenodd" d="M21.0929 19.2538L21.4085 19.8562C21.7282 20.4663 22.0301 20.9541 22.416 21.3228C22.8217 21.7105 23.2852 21.9348 23.8647 22.0844L23.893 22.0917L23.9219 22.0965C24.4677 22.187 24.9593 22.2416 25.4964 22.1801C26.0337 22.1187 26.5721 21.9467 27.2346 21.6463L27.8129 21.3841L27.5176 20.8494C27.2026 20.2791 26.8861 19.8522 26.4728 19.5127C26.0613 19.1748 25.5927 18.9557 25.0356 18.7465L25.003 18.7343L24.9692 18.7256C23.9294 18.4571 23.1212 18.6209 21.7721 19.0419L21.0929 19.2538ZM22.8745 19.9465C23.6698 19.7349 24.094 19.7203 24.6043 19.847C25.0934 20.0325 25.4006 20.1901 25.649 20.3941C25.7911 20.5108 25.9262 20.6529 26.0665 20.8441C25.7865 20.9408 25.5567 20.9927 25.345 21.0169C25.0011 21.0562 24.6621 21.0281 24.1692 20.9474C23.7678 20.8407 23.5216 20.706 23.3082 20.5021C23.1669 20.3671 23.0285 20.1909 22.8745 19.9465Z" fill="#2E6F40"/>
<path fill-rule="evenodd" clip-rule="evenodd" d="M16.6626 15.4922V23.6953H15.4126L15.4126 15.4922H16.6626Z" fill="#2E6F40"/>
<path fill-rule="evenodd" clip-rule="evenodd" d="M15.9219 9.38945L16.4354 9.85701C16.9555 10.3306 17.3571 10.7504 17.6119 11.2085C17.8798 11.6901 17.9641 12.1726 17.9368 12.7356L17.9355 12.763L17.9314 12.7902C17.8546 13.3049 17.758 13.76 17.5297 14.2199C17.3013 14.6801 16.9604 15.1069 16.451 15.6048L16.0064 16.0394L15.5552 15.6108C15.0739 15.1537 14.7387 14.7397 14.522 14.2662C14.3063 13.795 14.2289 13.3094 14.1889 12.7481L14.1865 12.7153L14.1881 12.6824C14.2371 11.6723 14.653 11.0024 15.497 9.92956L15.9219 9.38945ZM16.074 11.192C15.6136 11.8358 15.4677 12.2095 15.4385 12.7036C15.4755 13.1969 15.5405 13.5196 15.6707 13.8041C15.7452 13.9669 15.8476 14.1313 15.9982 14.3154C16.1828 14.0957 16.3064 13.9068 16.3964 13.7255C16.5426 13.431 16.6188 13.1201 16.6893 12.6557C16.7051 12.2648 16.6445 12.0037 16.5036 11.7504C16.4103 11.5827 16.2744 11.4048 16.074 11.192Z" fill="#2E6F40"/>
<path fill-rule="evenodd" clip-rule="evenodd" d="M10.7081 15.2611L10.7973 15.927C10.8877 16.6014 11.0037 17.1547 11.2406 17.6212C11.4896 18.1116 11.8499 18.4651 12.3459 18.7835L12.3701 18.799L12.3958 18.8124C12.8804 19.0645 13.3263 19.2662 13.8554 19.372C14.3849 19.4779 14.9537 19.4796 15.6844 19.3978L16.3222 19.3264L16.2286 18.7307C16.1289 18.0953 15.9779 17.5951 15.705 17.1479C15.4333 16.7028 15.0663 16.3527 14.6122 15.9849L14.5856 15.9634L14.5567 15.9448C13.6667 15.3735 12.8457 15.2818 11.4239 15.268L10.7081 15.2611ZM12.1521 16.4599C12.9776 16.5025 13.3837 16.6182 13.8222 16.8937C14.2202 17.2183 14.456 17.4611 14.62 17.7299C14.7138 17.8836 14.7922 18.0592 14.8584 18.2828C14.5602 18.2888 14.3248 18.2677 14.1162 18.2259C13.7774 18.1582 13.4667 18.0281 13.0287 17.8014C12.6862 17.578 12.5002 17.3755 12.3692 17.1175C12.2825 16.9468 12.2128 16.7379 12.1521 16.4599Z" fill="#2E6F40"/>
<path fill-rule="evenodd" clip-rule="evenodd" d="M21.5083 18.6803L21.3453 19.3338C21.1802 19.9956 21.0031 20.5346 20.7156 20.9753C20.4132 21.4386 20.0154 21.7548 19.4867 22.0229L19.4609 22.036L19.4339 22.0467C18.9238 22.25 18.4579 22.4068 17.9198 22.4602C17.3815 22.5137 16.8156 22.4596 16.098 22.3067L15.4717 22.1732L15.6311 21.5899C15.8012 20.9677 16.0071 20.4851 16.3284 20.0671C16.6482 19.651 17.0523 19.3388 17.5449 19.0175L17.5737 18.9987L17.6046 18.9831C18.5533 18.5022 19.3801 18.4914 20.7956 18.617L21.5083 18.6803ZM19.9385 19.731C19.1128 19.6925 18.696 19.7677 18.2292 19.9988C17.7972 20.2826 17.5356 20.501 17.3425 20.7522C17.2321 20.8959 17.1345 21.0628 17.0437 21.2787C17.3397 21.3139 17.5761 21.3159 17.7882 21.2949C18.1328 21.2607 18.4563 21.1618 18.9172 20.9792C19.2827 20.7906 19.4902 20.6074 19.6492 20.3637C19.7545 20.2024 19.8472 20.0016 19.9385 19.731Z" fill="#2E6F40"/>
</g>
<path d="M53.472 36.16C51.7867 36.16 50.2293 35.8827 48.8 35.328C47.3707 34.752 46.1227 33.952 45.056 32.928C44.0107 31.904 43.2 30.7093 42.624 29.344C42.048 27.9573 41.76 26.4427 41.76 24.8C41.76 23.1573 42.048 21.6533 42.624 20.288C43.2 18.9013 44.0213 17.696 45.088 16.672C46.1547 15.648 47.392 14.8587 48.8 14.304C50.2293 13.728 51.7973 13.44 53.504 13.44C55.1253 13.44 56.6293 13.696 58.016 14.208C59.4027 14.72 60.5867 15.488 61.568 16.512L60.544 17.6C59.5627 16.64 58.4853 15.9573 57.312 15.552C56.16 15.1467 54.9013 14.944 53.536 14.944C52.0853 14.944 50.7413 15.1893 49.504 15.68C48.2667 16.1707 47.1893 16.864 46.272 17.76C45.3547 18.656 44.64 19.7013 44.128 20.896C43.6373 22.0907 43.392 23.392 43.392 24.8C43.392 26.208 43.6373 27.5093 44.128 28.704C44.64 29.8987 45.3547 30.944 46.272 31.84C47.1893 32.736 48.2667 33.4293 49.504 33.92C50.7413 34.4107 52.0853 34.656 53.536 34.656C54.8587 34.656 56.1067 34.4533 57.28 34.048C58.4747 33.6427 59.5627 32.9707 60.544 32.032L61.472 33.28C60.4693 34.24 59.264 34.9653 57.856 35.456C56.4693 35.9253 55.008 36.16 53.472 36.16ZM59.904 33.12V24.896H61.472V33.28L59.904 33.12ZM68.142 36V19.296H69.678V23.872L69.518 23.36C69.9873 22.016 70.7767 20.9813 71.886 20.256C72.9953 19.5307 74.382 19.168 76.046 19.168V20.736C75.982 20.736 75.918 20.736 75.854 20.736C75.79 20.7147 75.726 20.704 75.662 20.704C73.806 20.704 72.3553 21.2907 71.31 22.464C70.2647 23.616 69.742 25.2267 69.742 27.296V36H68.142ZM87.0823 36.128C85.3969 36.128 83.9036 35.7653 82.6023 35.04C81.3223 34.3147 80.3089 33.312 79.5623 32.032C78.8369 30.752 78.4743 29.2907 78.4743 27.648C78.4743 25.984 78.8156 24.5227 79.4983 23.264C80.2023 21.984 81.1623 20.9813 82.3783 20.256C83.5943 19.5307 84.9596 19.168 86.4743 19.168C87.9889 19.168 89.3436 19.52 90.5383 20.224C91.7543 20.928 92.7036 21.92 93.3863 23.2C94.0903 24.4587 94.4423 25.92 94.4423 27.584C94.4423 27.648 94.4316 27.7227 94.4103 27.808C94.4103 27.872 94.4103 27.9467 94.4103 28.032H79.6583V26.784H93.5463L92.9062 27.392C92.9276 26.0907 92.6503 24.928 92.0743 23.904C91.5196 22.8587 90.7623 22.048 89.8023 21.472C88.8423 20.8747 87.7329 20.576 86.4743 20.576C85.2369 20.576 84.1276 20.8747 83.1463 21.472C82.1863 22.048 81.4289 22.8587 80.8743 23.904C80.3196 24.928 80.0423 26.1013 80.0423 27.424V27.712C80.0423 29.0773 80.3409 30.2933 80.9383 31.36C81.5569 32.4053 82.3996 33.2267 83.4663 33.824C84.5329 34.4 85.7489 34.688 87.1143 34.688C88.1809 34.688 89.1729 34.496 90.0903 34.112C91.0289 33.728 91.8183 33.1413 92.4583 32.352L93.3863 33.408C92.6609 34.304 91.7436 34.9867 90.6343 35.456C89.5463 35.904 88.3623 36.128 87.0823 36.128ZM105.824 36.128C104.267 36.128 102.859 35.776 101.6 35.072C100.363 34.3467 99.3813 33.344 98.656 32.064C97.9307 30.784 97.568 29.312 97.568 27.648C97.568 25.9627 97.9307 24.4907 98.656 23.232C99.3813 21.952 100.363 20.96 101.6 20.256C102.859 19.5307 104.267 19.168 105.824 19.168C107.296 19.168 108.619 19.5093 109.792 20.192C110.987 20.8747 111.925 21.8453 112.608 23.104C113.312 24.3627 113.664 25.8773 113.664 27.648C113.664 29.376 113.323 30.88 112.64 32.16C111.957 33.44 111.019 34.4213 109.824 35.104C108.651 35.7867 107.317 36.128 105.824 36.128ZM105.92 34.688C107.2 34.688 108.341 34.4 109.344 33.824C110.368 33.2267 111.168 32.3947 111.744 31.328C112.341 30.2613 112.64 29.0347 112.64 27.648C112.64 26.24 112.341 25.0133 111.744 23.968C111.168 22.9013 110.368 22.08 109.344 21.504C108.341 20.9067 107.2 20.608 105.92 20.608C104.64 20.608 103.488 20.9067 102.464 21.504C101.461 22.08 100.661 22.9013 100.064 23.968C99.488 25.0133 99.2 26.24 99.2 27.648C99.2 29.0347 99.488 30.2613 100.064 31.328C100.661 32.3947 101.461 33.2267 102.464 33.824C103.488 34.4 104.64 34.688 105.92 34.688ZM112.672 36V30.528L112.96 27.616L112.64 24.704V12.256H114.24V36H112.672ZM120.986 36V19.296H122.586V36H120.986ZM121.786 15.232C121.423 15.232 121.114 15.104 120.858 14.848C120.602 14.592 120.474 14.2933 120.474 13.952C120.474 13.5893 120.602 13.28 120.858 13.024C121.114 12.768 121.423 12.64 121.786 12.64C122.17 12.64 122.479 12.768 122.714 13.024C122.97 13.2587 123.098 13.5573 123.098 13.92C123.098 14.2827 122.97 14.592 122.714 14.848C122.479 15.104 122.17 15.232 121.786 15.232ZM135.954 36.128C134.332 36.128 132.882 35.7653 131.602 35.04C130.343 34.3147 129.34 33.312 128.594 32.032C127.868 30.752 127.506 29.2907 127.506 27.648C127.506 25.984 127.868 24.512 128.594 23.232C129.34 21.952 130.343 20.96 131.602 20.256C132.882 19.5307 134.332 19.168 135.954 19.168C137.298 19.168 138.514 19.424 139.602 19.936C140.711 20.448 141.607 21.216 142.29 22.24L141.106 23.104C140.508 22.2507 139.762 21.6213 138.866 21.216C137.97 20.8107 136.999 20.608 135.954 20.608C134.652 20.608 133.479 20.9067 132.434 21.504C131.41 22.08 130.599 22.9013 130.002 23.968C129.426 25.0133 129.138 26.24 129.138 27.648C129.138 29.056 129.426 30.2933 130.002 31.36C130.599 32.4053 131.41 33.2267 132.434 33.824C133.479 34.4 134.652 34.688 135.954 34.688C136.999 34.688 137.97 34.4853 138.866 34.08C139.762 33.6747 140.508 33.0453 141.106 32.192L142.29 33.056C141.607 34.08 140.711 34.848 139.602 35.36C138.514 35.872 137.298 36.128 135.954 36.128ZM153.582 36.128C151.897 36.128 150.404 35.7653 149.102 35.04C147.822 34.3147 146.809 33.312 146.062 32.032C145.337 30.752 144.974 29.2907 144.974 27.648C144.974 25.984 145.316 24.5227 145.998 23.264C146.702 21.984 147.662 20.9813 148.878 20.256C150.094 19.5307 151.46 19.168 152.974 19.168C154.489 19.168 155.844 19.52 157.038 20.224C158.254 20.928 159.204 21.92 159.886 23.2C160.59 24.4587 160.942 25.92 160.942 27.584C160.942 27.648 160.932 27.7227 160.91 27.808C160.91 27.872 160.91 27.9467 160.91 28.032H146.158V26.784H160.046L159.406 27.392C159.428 26.0907 159.15 24.928 158.574 23.904C158.02 22.8587 157.262 22.048 156.302 21.472C155.342 20.8747 154.233 20.576 152.974 20.576C151.737 20.576 150.628 20.8747 149.646 21.472C148.686 22.048 147.929 22.8587 147.374 23.904C146.82 24.928 146.542 26.1013 146.542 27.424V27.712C146.542 29.0773 146.841 30.2933 147.438 31.36C148.057 32.4053 148.9 33.2267 149.966 33.824C151.033 34.4 152.249 34.688 153.614 34.688C154.681 34.688 155.673 34.496 156.59 34.112C157.529 33.728 158.318 33.1413 158.958 32.352L159.886 33.408C159.161 34.304 158.244 34.9867 157.134 35.456C156.046 35.904 154.862 36.128 153.582 36.128Z" fill="#2E6F40"/>
<defs>
<clipPath id="clip0_1185_1328">
<rect width="32" height="30" fill="white" transform="translate(0 6)"/>
</clipPath>
</defs>
</svg>
