<svg xmlns="http://www.w3.org/2000/svg" version="1.1" xmlns:xlink="http://www.w3.org/1999/xlink" xmlns:svgjs="http://svgjs.dev/svgjs" width="32" height="30"><svg width="32" height="30" viewBox="0 0 32 30" fill="none" xmlns="http://www.w3.org/2000/svg">
<g clip-path="url(#clip0_1185_374)">
<path fill-rule="evenodd" clip-rule="evenodd" d="M0.125 18.2227C0.125 17.8991 0.404822 17.6367 0.75 17.6367H31.25C31.5952 17.6367 31.875 17.8991 31.875 18.2227C31.875 18.5463 31.5952 18.8086 31.25 18.8086H0.75C0.404822 18.8086 0.125 18.5463 0.125 18.2227Z" fill="#2E6F40"></path>
<path fill-rule="evenodd" clip-rule="evenodd" d="M0.125 21.9727C0.125 21.6491 0.404822 21.3867 0.75 21.3867H31.25C31.5952 21.3867 31.875 21.6491 31.875 21.9727C31.875 22.2963 31.5952 22.5586 31.25 22.5586H0.75C0.404822 22.5586 0.125 22.2963 0.125 21.9727Z" fill="#2E6F40"></path>
<path fill-rule="evenodd" clip-rule="evenodd" d="M0.125 25.7227C0.125 25.3991 0.404822 25.1367 0.75 25.1367H31.25C31.5952 25.1367 31.875 25.3991 31.875 25.7227C31.875 26.0463 31.5952 26.3086 31.25 26.3086H0.75C0.404822 26.3086 0.125 26.0463 0.125 25.7227Z" fill="#2E6F40"></path>
<path fill-rule="evenodd" clip-rule="evenodd" d="M0.125 29.4727C0.125 29.1491 0.404822 28.8867 0.75 28.8867H31.25C31.5952 28.8867 31.875 29.1491 31.875 29.4727C31.875 29.7963 31.5952 30.0586 31.25 30.0586H0.75C0.404822 30.0586 0.125 29.7963 0.125 29.4727Z" fill="#2E6F40"></path>
<path fill-rule="evenodd" clip-rule="evenodd" d="M7.03125 6.21094L7.03125 17.6953H5.78125L5.78125 6.21094H7.03125Z" fill="#2E6F40"></path>
<path fill-rule="evenodd" clip-rule="evenodd" d="M6.29686 0.225403L6.8104 0.692958C7.33053 1.16651 7.73207 1.58638 7.98689 2.04442C8.25482 2.52601 8.3391 3.00854 8.31183 3.57152L8.3105 3.59898L8.30643 3.6262C8.22956 4.1408 8.13302 4.596 7.90473 5.05588C7.67631 5.51602 7.33544 5.9429 6.82601 6.44078L6.38138 6.87534L5.93017 6.44679C5.44891 5.9897 5.11369 5.57563 4.897 5.10218C4.68131 4.63091 4.60391 4.14535 4.56387 3.58403L4.56152 3.55121L4.56312 3.51834C4.61207 2.50827 5.02803 1.83832 5.87197 0.765518L6.29686 0.225403ZM6.44905 2.02796C5.98856 2.67171 5.84267 3.04541 5.81354 3.53954C5.85053 4.03288 5.91547 4.35551 6.04572 4.6401C6.12019 4.80281 6.2226 4.96721 6.37321 5.15135C6.55783 4.93163 6.68145 4.74272 6.77144 4.56143C6.91763 4.26694 6.99381 3.95603 7.0643 3.49163C7.08007 3.10077 7.0195 2.83964 6.87859 2.58635C6.78529 2.41866 6.6494 2.24075 6.44905 2.02796Z" fill="#2E6F40"></path>
<path fill-rule="evenodd" clip-rule="evenodd" d="M1.35446 4.74911L1.38146 5.41974C1.40881 6.09898 1.47295 6.65968 1.66552 7.14371C1.86798 7.65262 2.1941 8.03421 2.6586 8.39192L2.68126 8.40937L2.70556 8.42475C3.16492 8.71553 3.59034 8.95285 4.10765 9.10153C4.62523 9.25028 5.1917 9.29843 5.92724 9.27667L6.56923 9.25767L6.53144 8.65655C6.49114 8.01541 6.38721 7.50479 6.15691 7.03702C5.92766 6.57141 5.59456 6.19259 5.1764 5.78909L5.15195 5.7655L5.12483 5.74462C4.2914 5.10285 3.48201 4.94437 2.06691 4.81449L1.35446 4.74911ZM2.68149 6.06128C3.49991 6.17121 3.89376 6.31963 4.30494 6.62997C4.67125 6.98585 4.88354 7.24698 5.02198 7.52815C5.10113 7.68891 5.16292 7.87026 5.20811 8.0984C4.9104 8.08 4.67794 8.03972 4.47401 7.98111C4.14276 7.88591 3.84533 7.73095 3.43004 7.46931C3.10966 7.21876 2.94319 7.00183 2.8367 6.73418C2.7662 6.55697 2.71611 6.34325 2.68149 6.06128Z" fill="#2E6F40"></path>
<path fill-rule="evenodd" clip-rule="evenodd" d="M10.7879 7.73575L10.8234 8.40604C10.8593 9.08493 10.8475 9.64874 10.7007 10.1467C10.5463 10.6702 10.2569 11.077 9.82742 11.4713L9.80647 11.4905L9.78369 11.5078C9.35312 11.835 8.95137 12.1062 8.44986 12.2966C7.94807 12.487 7.38823 12.5813 6.65347 12.6197L6.01216 12.6532L5.99392 12.0513C5.97447 11.4093 6.03052 10.8922 6.21647 10.4074C6.40156 9.92479 6.69817 9.52019 7.07723 9.08407L7.09939 9.05856L7.12447 9.03554C7.89506 8.32812 8.68664 8.10411 10.0843 7.8591L10.7879 7.73575ZM9.58795 9.15136C8.78287 9.32774 8.40431 9.50778 8.02355 9.85054C7.69171 10.235 7.50451 10.5125 7.39274 10.8039C7.32883 10.9705 7.28413 11.1562 7.26033 11.3872C7.55519 11.3445 7.78302 11.2854 7.98073 11.2104C8.30187 11.0884 8.58376 10.9098 8.97315 10.6152C9.26902 10.3394 9.41469 10.1097 9.49589 9.83438C9.54964 9.65209 9.57968 9.43508 9.58795 9.15136Z" fill="#2E6F40"></path>
<path fill-rule="evenodd" clip-rule="evenodd" d="M0.280402 13.2539L0.596025 13.8562C0.915698 14.4663 1.21755 14.9541 1.60347 15.3228C2.00923 15.7105 2.4727 15.9348 3.05224 16.0844L3.08051 16.0917L3.10938 16.0965C3.65518 16.187 4.14679 16.2416 4.68387 16.1802C5.22124 16.1187 5.75963 15.9467 6.42214 15.6463L7.00038 15.3842L6.70506 14.8494C6.39008 14.2791 6.07361 13.8522 5.66027 13.5127C5.24884 13.1748 4.78019 12.9557 4.22312 12.7466L4.19055 12.7343L4.15671 12.7256C3.11691 12.4571 2.30873 12.621 0.959625 13.0419L0.280402 13.2539ZM2.062 13.9466C2.85735 13.7349 3.28154 13.7203 3.79182 13.8471C4.28086 14.0325 4.58808 14.1901 4.83654 14.3942C4.97859 14.5108 5.11372 14.6529 5.25399 14.8441C4.97403 14.9408 4.7442 14.9927 4.53247 15.0169C4.18856 15.0563 3.84961 15.0281 3.35671 14.9474C2.95532 14.8407 2.70913 14.706 2.49573 14.5021C2.35444 14.3671 2.21595 14.191 2.062 13.9466Z" fill="#2E6F40"></path>
<path fill-rule="evenodd" clip-rule="evenodd" d="M27.8438 6.21094L27.8438 17.6953H26.5938L26.5938 6.21094H27.8438Z" fill="#2E6F40"></path>
<path fill-rule="evenodd" clip-rule="evenodd" d="M27.1096 0.225403L27.6231 0.692958C28.1433 1.16651 28.5448 1.58638 28.7996 2.04442C29.0676 2.52601 29.1518 3.00854 29.1246 3.57152L29.1232 3.59898L29.1192 3.6262C29.0423 4.1408 28.9458 4.596 28.7175 5.05588C28.4891 5.51602 28.1482 5.9429 27.6388 6.44078L27.1941 6.87534L26.7429 6.44679C26.2617 5.9897 25.9264 5.57563 25.7097 5.10218C25.4941 4.63091 25.4166 4.14535 25.3766 3.58403L25.3743 3.55121L25.3759 3.51834C25.4248 2.50827 25.8408 1.83832 26.6847 0.765518L27.1096 0.225403ZM27.2618 2.02796C26.8013 2.67171 26.6554 3.04541 26.6263 3.53954C26.6633 4.03288 26.7282 4.35551 26.8585 4.6401C26.9329 4.80281 27.0353 4.96721 27.186 5.15135C27.3706 4.93163 27.4942 4.74272 27.5842 4.56143C27.7304 4.26694 27.8066 3.95603 27.877 3.49163C27.8928 3.10077 27.8322 2.83964 27.6913 2.58635C27.598 2.41866 27.4621 2.24075 27.2618 2.02796Z" fill="#2E6F40"></path>
<path fill-rule="evenodd" clip-rule="evenodd" d="M22.1672 4.74911L22.1942 5.41974C22.2215 6.09898 22.2857 6.65968 22.4783 7.14371C22.6807 7.65262 23.0068 8.03421 23.4713 8.39192L23.494 8.40937L23.5183 8.42475C23.9777 8.71553 24.4031 8.95285 24.9204 9.10153C25.438 9.25028 26.0044 9.29843 26.74 9.27667L27.382 9.25767L27.3442 8.65655C27.3039 8.01541 27.2 7.50479 26.9697 7.03702C26.7404 6.57141 26.4073 6.19259 25.9891 5.78909L25.9647 5.7655L25.9376 5.74462C25.1041 5.10285 24.2948 4.94437 22.8797 4.81449L22.1672 4.74911ZM23.4942 6.06128C24.3126 6.17121 24.7065 6.31963 25.1177 6.62997C25.484 6.98585 25.6963 7.24698 25.8347 7.52815C25.9139 7.68891 25.9757 7.87026 26.0209 8.0984C25.7231 8.08 25.4907 8.03972 25.2868 7.98111C24.9555 7.88591 24.6581 7.73095 24.2428 7.46931C23.9224 7.21876 23.7559 7.00183 23.6494 6.73418C23.5789 6.55697 23.5289 6.34325 23.4942 6.06128Z" fill="#2E6F40"></path>
<path fill-rule="evenodd" clip-rule="evenodd" d="M31.6004 7.73575L31.6359 8.40604C31.6718 9.08493 31.66 9.64874 31.5132 10.1467C31.3588 10.6702 31.0694 11.077 30.6399 11.4713L30.619 11.4905L30.5962 11.5078C30.1656 11.835 29.7639 12.1062 29.2624 12.2966C28.7606 12.487 28.2007 12.5813 27.466 12.6197L26.8247 12.6532L26.8064 12.0513C26.787 11.4093 26.843 10.8922 27.029 10.4074C27.2141 9.92479 27.5107 9.52019 27.8897 9.08407L27.9119 9.05856L27.937 9.03554C28.7076 8.32812 29.4991 8.10411 30.8968 7.8591L31.6004 7.73575ZM30.4004 9.15136C29.5954 9.32774 29.2168 9.50778 28.836 9.85054C28.5042 10.235 28.317 10.5125 28.2052 10.8039C28.1413 10.9705 28.0966 11.1562 28.0728 11.3872C28.3677 11.3445 28.5955 11.2854 28.7932 11.2104C29.1144 11.0884 29.3963 10.9098 29.7856 10.6152C30.0815 10.3394 30.2272 10.1097 30.3084 9.83438C30.3621 9.65209 30.3922 9.43508 30.4004 9.15136Z" fill="#2E6F40"></path>
<path fill-rule="evenodd" clip-rule="evenodd" d="M21.0929 13.2539L21.4085 13.8562C21.7282 14.4663 22.0301 14.9541 22.416 15.3228C22.8217 15.7105 23.2852 15.9348 23.8647 16.0844L23.893 16.0917L23.9219 16.0965C24.4677 16.187 24.9593 16.2416 25.4964 16.1802C26.0337 16.1187 26.5721 15.9467 27.2346 15.6463L27.8129 15.3842L27.5176 14.8494C27.2026 14.2791 26.8861 13.8522 26.4728 13.5127C26.0613 13.1748 25.5927 12.9557 25.0356 12.7466L25.003 12.7343L24.9692 12.7256C23.9294 12.4571 23.1212 12.621 21.7721 13.0419L21.0929 13.2539ZM22.8745 13.9466C23.6698 13.7349 24.094 13.7203 24.6043 13.8471C25.0934 14.0325 25.4006 14.1901 25.649 14.3942C25.7911 14.5108 25.9262 14.6529 26.0665 14.8441C25.7865 14.9408 25.5567 14.9927 25.345 15.0169C25.0011 15.0563 24.6621 15.0281 24.1692 14.9474C23.7678 14.8407 23.5216 14.706 23.3082 14.5021C23.1669 14.3671 23.0285 14.191 22.8745 13.9466Z" fill="#2E6F40"></path>
<path fill-rule="evenodd" clip-rule="evenodd" d="M16.6626 9.49219V17.6953H15.4126L15.4126 9.49219H16.6626Z" fill="#2E6F40"></path>
<path fill-rule="evenodd" clip-rule="evenodd" d="M15.9219 3.38947L16.4354 3.85702C16.9555 4.33057 17.3571 4.75044 17.6119 5.20848C17.8798 5.69007 17.9641 6.1726 17.9368 6.73558L17.9355 6.76304L17.9314 6.79026C17.8546 7.30487 17.758 7.76006 17.5297 8.21994C17.3013 8.68008 16.9604 9.10696 16.451 9.60485L16.0064 10.0394L15.5552 9.61085C15.0739 9.15376 14.7387 8.73969 14.522 8.26624C14.3063 7.79497 14.2289 7.30942 14.1889 6.7481L14.1865 6.71527L14.1881 6.6824C14.2371 5.67233 14.653 5.00238 15.497 3.92958L15.9219 3.38947ZM16.074 5.19203C15.6136 5.83577 15.4677 6.20948 15.4385 6.70361C15.4755 7.19695 15.5405 7.51957 15.6707 7.80416C15.7452 7.96687 15.8476 8.13127 15.9982 8.31541C16.1828 8.09569 16.3064 7.90679 16.3964 7.72549C16.5426 7.43101 16.6188 7.1201 16.6893 6.65569C16.7051 6.26483 16.6445 6.0037 16.5036 5.75041C16.4103 5.58272 16.2744 5.40481 16.074 5.19203Z" fill="#2E6F40"></path>
<path fill-rule="evenodd" clip-rule="evenodd" d="M10.7081 9.26114L10.7973 9.92702C10.8877 10.6014 11.0037 11.1548 11.2406 11.6212C11.4896 12.1116 11.8499 12.4651 12.3459 12.7835L12.3701 12.7991L12.3958 12.8124C12.8804 13.0645 13.3263 13.2662 13.8554 13.372C14.3849 13.4779 14.9537 13.4796 15.6844 13.3978L16.3222 13.3264L16.2286 12.7307C16.1289 12.0953 15.9779 11.5951 15.705 11.1479C15.4333 10.7028 15.0663 10.3527 14.6122 9.98488L14.5856 9.96337L14.5567 9.94479C13.6667 9.37356 12.8457 9.28182 11.4239 9.26806L10.7081 9.26114ZM12.1521 10.4599C12.9776 10.5025 13.3837 10.6182 13.8222 10.8938C14.2202 11.2184 14.456 11.4611 14.62 11.7299C14.7138 11.8836 14.7922 12.0592 14.8584 12.2828C14.5602 12.2888 14.3248 12.2677 14.1162 12.226C13.7774 12.1582 13.4667 12.0281 13.0287 11.8014C12.6862 11.578 12.5002 11.3755 12.3692 11.1175C12.2825 10.9468 12.2128 10.738 12.1521 10.4599Z" fill="#2E6F40"></path>
<path fill-rule="evenodd" clip-rule="evenodd" d="M21.5083 12.6803L21.3453 13.3338C21.1802 13.9957 21.0031 14.5346 20.7156 14.9753C20.4132 15.4386 20.0154 15.7549 19.4867 16.0229L19.4609 16.036L19.4339 16.0468C18.9238 16.25 18.4579 16.4069 17.9198 16.4603C17.3815 16.5137 16.8156 16.4597 16.098 16.3067L15.4717 16.1732L15.6311 15.5899C15.8012 14.9678 16.0071 14.4851 16.3284 14.0671C16.6482 13.6511 17.0523 13.3388 17.5449 13.0175L17.5737 12.9987L17.6046 12.9831C18.5533 12.5022 19.3801 12.4914 20.7956 12.6171L21.5083 12.6803ZM19.9385 13.731C19.1128 13.6925 18.696 13.7678 18.2292 13.9989C17.7972 14.2827 17.5356 14.501 17.3425 14.7523C17.2321 14.8959 17.1345 15.0629 17.0437 15.2787C17.3397 15.3139 17.5761 15.316 17.7882 15.2949C18.1328 15.2607 18.4563 15.1618 18.9172 14.9793C19.2827 14.7906 19.4902 14.6075 19.6492 14.3638C19.7545 14.2024 19.8472 14.0016 19.9385 13.731Z" fill="#2E6F40"></path>
</g>
<defs>
<clipPath id="SvgjsClipPath1044">
<rect width="32" height="30" fill="white"></rect>
</clipPath>
</defs>
</svg><style>@media (prefers-color-scheme: light) { :root { filter: none; } }
@media (prefers-color-scheme: dark) { :root { filter: none; } }
</style></svg>